<?xml version="1.0" encoding="utf-8"?>
<COLLADA xmlns="http://www.collada.org/2005/11/COLLADASchema" version="1.4.1">
  <asset>
    <created>2018-01-24T22:28:01Z</created>
    <modified>2018-01-24T22:28:01Z</modified>
  </asset>
  <library_images>
    <image id="Image">
      <init_from>./at07_huraipan.png</init_from>
    </image>
  </library_images>
  <library_materials>
    <material id="VisualMaterial" name="huraipan">
      <instance_effect url="#Effect"/>
      <extra>
        <technique profile="FCOLLADA">
          <user_properties>huraipan</user_properties>
        </technique>
      </extra>
    </material>
  </library_materials>
  <library_effects>
    <effect id="Effect" name="at07_huraipan_png">
      <profile_COMMON>
        <newparam sid="Image-surface">
          <surface type="2D">
            <init_from>Image</init_from>
            <format>A8R8G8B8</format>
          </surface>
        </newparam>
        <newparam sid="Image-sampler">
          <sampler2D>
            <source>Image-surface</source>
            <wrap_s>WRAP</wrap_s>
            <wrap_t>WRAP</wrap_t>
            <minfilter>NONE</minfilter>
            <magfilter>NONE</magfilter>
            <mipfilter>NONE</mipfilter>
          </sampler2D>
        </newparam>
        <technique sid="common">
          <phong>
            <emission>
              <color>0 0 0 1</color>
            </emission>
            <ambient>
              <color>0 0 0 1</color>
            </ambient>
            <diffuse>
              <texture texture="Image-sampler" texcoord=""/>
            </diffuse>
            <specular>
              <color>1 1 1 1</color>
            </specular>
            <shininess>
              <float>0</float>
            </shininess>
            <transparent opaque="A_ONE">
              <color>0 0 0 1</color>
            </transparent>
            <transparency>
              <float>1</float>
            </transparency>
            <index_of_refraction>
              <float>1.55</float>
            </index_of_refraction>
          </phong>
          <extra>
            <technique profile="FCOLLADA">
              <spec_level>
                <float>0</float>
              </spec_level>
            </technique>
          </extra>
        </technique>
      </profile_COMMON>
      <extra>
        <technique profile="FCOLLADA">
          <user_properties>at07_huraipan.png</user_properties>
        </technique>
      </extra>
    </effect>
  </library_effects>
  <library_geometries>
    <geometry id="Geometry" name="mesh_0_huraipan_model">
      <mesh>
        <source id="GeometrySource" name="mesh_0_huraipan_modelPos">
          <float_array id="GeometrySource-array" count="522">9.78245 -12.5271 49.7063 16.9693 -12.5271 37.2583 22.2304 -12.5271 42.5194 9.78245 -12.5271 35.3326 24.1562 -12.5271 49.7063 2.5956 -12.5271 37.2583 22.2304 -12.5271 56.8932 -2.66554 -12.5271 42.5194 16.9693 -12.5271 62.1543 -4.59126 -12.5271 49.7063 9.78245 -12.5271 64.08 -2.66554 -12.5271 56.8932 2.5956 -12.5271 62.1543 24.3264 -11.552 41.3094 18.1794 -11.552 35.1624 24.3264 -11.552 58.1032 26.5763 -11.552 49.7063 1.38551 -11.552 35.1624 9.78245 -11.552 32.9124 9.78245 -11.552 66.5002 18.1794 -11.552 64.2502 -7.01142 -11.552 49.7063 -4.76147 -11.552 41.3094 1.38551 -11.552 64.2502 -4.76147 -11.552 58.1032 32.9236 -4.46118 49.7063 29.8233 -4.46118 38.1357 9.78245 -4.46118 26.5651 21.353 -4.46118 29.6654 21.353 -4.46118 69.7472 29.8233 -4.46118 61.2769 -10.2584 -4.46118 38.1357 -1.78815 -4.46118 29.6654 -10.2584 -4.46118 61.2769 -13.3587 -4.46118 49.7063 9.78245 -4.46118 72.8475 -1.78815 -4.46118 69.7472 9.78245 -12.3813 49.7063 21.8551 -12.3813 42.7362 16.7526 -12.3813 37.6337 23.7227 -12.3813 49.7063 9.78245 -12.3813 35.766 21.8551 -12.3813 56.6764 2.81231 -12.3813 37.6337 16.7526 -12.3813 61.7789 -2.29018 -12.3813 42.7362 9.78245 -12.3813 63.6466 -4.15782 -12.3813 49.7063 2.81231 -12.3813 61.7789 -2.29018 -12.3813 56.6764 23.8878 -11.4356 41.5626 26.0699 -11.4356 49.7063 9.78245 -11.4356 33.4188 17.9262 -11.4356 35.6009 17.9262 -11.4356 63.8116 23.8878 -11.4356 57.85 -4.3229 -11.4356 41.5626 1.63872 -11.4356 35.6009 1.63872 -11.4356 63.8116 9.78245 -11.4356 65.9938 -6.50501 -11.4356 49.7063 -4.3229 -11.4356 57.85 29.219 -4.55859 38.4846 32.2258 -4.55859 49.7063 21.0041 -4.55859 69.1428 29.219 -4.55859 60.928 9.78245 -4.55859 27.2629 21.0041 -4.55859 30.2698 -1.43924 -4.55859 69.1428 9.78245 -4.55859 72.1497 -12.6609 -4.55859 49.7063 -9.65409 -4.55859 60.928 -1.43924 -4.55859 30.2698 -9.65409 -4.55859 38.4846 9.78245 -3.70648 26.3414 9.78245 -8.65651 30.6855 12.6804 -8.05475 31.0306 6.88451 -8.05475 31.0306 12.6804 -3.10472 26.6864 6.88451 -3.10472 26.6864 12.6804 -2.10298 24.53 6.88451 -2.10298 24.53 9.78245 -2.70474 24.1849 12.6804 2.52696 -11.8455 6.88451 2.52696 -11.8455 9.78245 1.9252 -14.0185 9.78245 -4.33733 25.8124 12.6804 -3.73557 26.1575 12.6804 -8.56678 30.3926 12.6804 -3.11167 24.53 9.78245 -9.16854 30.0475 9.78245 -3.71343 24.1849 6.88451 -8.56678 30.3926 6.88451 -3.11167 24.53 6.88451 -3.73557 26.1575 12.6804 1.51827 -11.8455 6.88451 1.51827 -11.8455 9.78245 0.916509 -14.0185 9.78245 -8.65651 30.6855 9.78245 -9.16854 30.0475 12.6804 -8.56678 30.3926 6.88451 -8.56678 30.3926 12.6804 -8.05475 31.0306 6.88451 -8.05475 31.0306 9.78245 1.9252 -14.0185 12.6804 2.52696 -11.8455 12.6804 1.51827 -11.8455 9.78245 0.916509 -14.0185 6.88451 1.51827 -11.8455 6.88451 2.52696 -11.8455 12.6804 -3.73557 26.1575 12.6804 -8.05475 31.0306 12.6804 -8.56678 30.3926 12.6804 -3.10472 26.6864 12.6804 -3.11167 24.53 12.6804 -2.10298 24.53 12.6804 1.51827 -11.8455 12.6804 2.52696 -11.8455 6.88451 -3.73557 26.1575 6.88451 -8.56678 30.3926 6.88451 -8.05475 31.0306 6.88451 -3.10472 26.6864 6.88451 -3.11167 24.53 6.88451 -2.10298 24.53 6.88451 1.51827 -11.8455 6.88451 2.52696 -11.8455 -1.78815 -4.46118 69.7472 -9.65409 -4.55859 60.928 -10.2584 -4.46118 61.2769 -1.43924 -4.55859 69.1428 -10.2584 -4.46118 61.2769 -12.6609 -4.55859 49.7063 -13.3587 -4.46118 49.7063 -9.65409 -4.55859 60.928 -13.3587 -4.46118 49.7063 -9.65409 -4.55859 38.4846 -10.2584 -4.46118 38.1357 -12.6609 -4.55859 49.7063 -10.2584 -4.46118 38.1357 -1.43924 -4.55859 30.2698 -1.78815 -4.46118 29.6654 -9.65409 -4.55859 38.4846 -1.78815 -4.46118 29.6654 9.78245 -4.55859 27.2629 9.78245 -4.46118 26.5651 -1.43924 -4.55859 30.2698 9.78245 -4.46118 26.5651 21.0041 -4.55859 30.2698 21.353 -4.46118 29.6654 9.78245 -4.55859 27.2629 21.353 -4.46118 29.6654 29.219 -4.55859 38.4846 29.8233 -4.46118 38.1357 21.0041 -4.55859 30.2698 29.8233 -4.46118 38.1357 32.2258 -4.55859 49.7063 32.9236 -4.46118 49.7063 29.219 -4.55859 38.4846 32.9236 -4.46118 49.7063 29.219 -4.55859 60.928 29.8233 -4.46118 61.2769 32.2258 -4.55859 49.7063 29.8233 -4.46118 61.2769 21.0041 -4.55859 69.1428 21.353 -4.46118 69.7472 29.219 -4.55859 60.928 21.353 -4.46118 69.7472 9.78245 -4.55859 72.1497 9.78245 -4.46118 72.8475 21.0041 -4.55859 69.1428 9.78245 -4.46118 72.8475 -1.43924 -4.55859 69.1428 -1.78815 -4.46118 69.7472 9.78245 -4.55859 72.1497</float_array>
          <technique_common>
            <accessor source="#GeometrySource-array" count="174" stride="3">
              <param name="X" type="float"/>
              <param name="Y" type="float"/>
              <param name="Z" type="float"/>
            </accessor>
          </technique_common>
        </source>
        <source id="GeometrySource1" name="mesh_0_huraipan_modelNrm">
          <float_array id="GeometrySource1-array" count="522">0 -1 0 0.067053 -0.990967 -0.116141 0.116141 -0.990967 -0.067054 0 -0.991114 -0.133015 0.134108 -0.990967 0 -0.067054 -0.990967 -0.116141 0.116141 -0.990967 0.067054 -0.116141 -0.990967 -0.067054 0.067053 -0.990967 0.116141 -0.134108 -0.990967 0 0 -0.990967 0.134108 -0.116141 -0.990967 0.067053 -0.067053 -0.990967 0.116141 0.607783 -0.712366 -0.350904 0.350904 -0.712366 -0.607783 0.607783 -0.712366 0.350904 0.701808 -0.712366 0 -0.350904 -0.712366 -0.607783 0 -0.712366 -0.701808 0 -0.712366 0.701808 0.350904 -0.712366 0.607784 -0.701808 -0.712366 0 -0.607783 -0.712366 -0.350904 -0.350904 -0.712366 0.607784 -0.607783 -0.712366 0.350904 0.745088 -0.666966 0 0.645265 -0.666966 -0.372544 0 -0.65919 -0.751976 0.372544 -0.666966 -0.645265 0.372544 -0.666966 0.645265 0.645265 -0.666966 0.372544 -0.645265 -0.666966 -0.372544 -0.372544 -0.666966 -0.645265 -0.645265 -0.666966 0.372544 -0.745088 -0.666966 0 0 -0.666966 0.745088 -0.372544 -0.666966 0.645265 0 1 0 -0.116141 0.990967 0.067054 -0.067053 0.990967 0.116141 -0.134108 0.990967 0 0 0.990124 0.140195 -0.116141 0.990967 -0.067054 0.067053 0.990967 0.116141 -0.067054 0.990967 -0.116141 0.116141 0.990967 0.067054 0 0.990967 -0.134108 0.134108 0.990967 0 0.067054 0.990967 -0.116141 0.116141 0.990967 -0.067054 -0.607783 0.712366 0.350904 -0.701808 0.712367 0 0 0.712366 0.701808 -0.350904 0.712366 0.607783 -0.350904 0.712366 -0.607783 -0.607783 0.712367 -0.350904 0.607783 0.712366 0.350904 0.350904 0.712366 0.607783 0.350904 0.712366 -0.607783 0 0.712366 -0.701808 0.701808 0.712366 0 0.607783 0.712366 -0.350904 -0.645265 0.666966 0.372544 -0.745088 0.666966 0 -0.372544 0.666966 -0.645265 -0.645265 0.666966 -0.372544 0 0.659612 0.751607 -0.372544 0.666966 0.645265 0.372544 0.666966 -0.645265 0 0.666966 -0.745088 0.745088 0.666966 0 0.645265 0.666966 -0.372544 0.372544 0.666966 0.645265 0.645265 0.666966 0.372544 0 0.735682 0.677327 0 0.659612 0.751607 -0.220871 0.643321 0.733045 0.220871 0.643321 0.733044 -0.227584 0.720166 0.655413 0.227584 0.720166 0.655413 -0.250728 0.958166 0.138037 0.250728 0.958166 0.138037 0 0.990124 0.140195 -0.251273 0.960541 0.119263 0.251273 0.960541 0.119263 0 0.99238 0.123216 0 -0.730743 -0.682652 0.227151 -0.714379 -0.661865 0.220832 -0.642916 -0.733411 0.250583 -0.95928 -0.130344 0 -0.65919 -0.751976 0 -0.991114 -0.133015 -0.220831 -0.642916 -0.733411 -0.250583 -0.95928 -0.130344 -0.227151 -0.714379 -0.661865 0.251273 -0.960541 -0.119263 -0.251273 -0.960541 -0.119263 0 -0.991114 -0.133015 0 -0.779902 0.625902 0 -0.779902 0.625902 0.087088 -0.776939 0.623524 -0.087087 -0.776939 0.623524 0.087088 -0.776939 0.623524 -0.087087 -0.776939 0.623524 0 0 -1 0.599932 0 -0.800051 0.599932 0 -0.800051 0 0 -1 -0.599932 0 -0.800051 -0.599932 0 -0.800051 1 0 0 1 0 0 1 0 0 1 0 0 1 0 0 1 0 0 1 0 0 1 0 0 -1 0 0 -1 0 0 -1 0 0 -1 0 0 -1 0 0 -1 0 0 -1 0 0 -1 0 0 0.10114 0.989718 -0.101139 0.10114 0.989718 -0.101139 0.10114 0.989718 -0.101139 0.10114 0.989718 -0.101139 0.138159 0.989718 -0.037019 0.138159 0.989718 -0.037019 0.138159 0.989718 -0.037019 0.138159 0.989718 -0.037019 0.138159 0.989718 0.037019 0.138159 0.989718 0.037019 0.138159 0.989718 0.037019 0.138159 0.989718 0.037019 0.101139 0.989718 0.101139 0.101139 0.989718 0.101139 0.101139 0.989718 0.101139 0.101139 0.989718 0.101139 0.037019 0.989718 0.138159 0.037019 0.989718 0.138159 0.037019 0.989718 0.138159 0.037019 0.989718 0.138159 -0.037019 0.989718 0.138159 -0.037019 0.989718 0.138159 -0.037019 0.989718 0.138159 -0.037019 0.989718 0.138159 -0.101139 0.989718 0.101139 -0.101139 0.989718 0.101139 -0.101139 0.989718 0.101139 -0.101139 0.989718 0.101139 -0.138159 0.989718 0.037019 -0.138159 0.989718 0.037019 -0.138159 0.989718 0.037019 -0.138159 0.989718 0.037019 -0.13816 0.989718 -0.037019 -0.13816 0.989718 -0.037019 -0.13816 0.989718 -0.037019 -0.13816 0.989718 -0.037019 -0.101139 0.989718 -0.101139 -0.101139 0.989718 -0.101139 -0.101139 0.989718 -0.101139 -0.101139 0.989718 -0.101139 -0.037019 0.989718 -0.138159 -0.037019 0.989718 -0.138159 -0.037019 0.989718 -0.138159 -0.037019 0.989718 -0.138159 0.037019 0.989718 -0.138159 0.037019 0.989718 -0.138159 0.037019 0.989718 -0.138159 0.037019 0.989718 -0.138159</float_array>
          <technique_common>
            <accessor source="#GeometrySource1-array" count="174" stride="3">
              <param name="X" type="float"/>
              <param name="Y" type="float"/>
              <param name="Z" type="float"/>
            </accessor>
          </technique_common>
        </source>
        <source id="GeometrySource2" name="mesh_0_huraipan_modelUV">
          <float_array id="GeometrySource2-array" count="348">0.495096 0.331238 0.814151 0.46454 0.660663 0.46454 0.947385 0.46454 0.495096 0.46454 0.814151 0.46454 0.329529 0.46454 0.660663 0.46454 0.176041 0.46454 0.495096 0.46454 0.042807 0.46454 0.329529 0.46454 0.176041 0.46454 0.660663 0.507401 0.814151 0.507401 0.329529 0.507401 0.495096 0.507401 0.814151 0.507401 0.947385 0.507401 0.042807 0.507401 0.176041 0.507401 0.495096 0.507401 0.660663 0.507401 0.176041 0.507401 0.329529 0.507401 0.495096 0.64489 0.660663 0.64489 0.947385 0.64489 0.814151 0.64489 0.176041 0.64489 0.329529 0.64489 0.660663 0.64489 0.814151 0.64489 0.329529 0.64489 0.495096 0.64489 0.042807 0.64489 0.176041 0.64489 0.495096 0.718154 0.655671 0.82276 0.80453 0.82276 0.495096 0.82276 0.933746 0.82276 0.334521 0.82276 0.80453 0.82276 0.185662 0.82276 0.655671 0.82276 0.056446 0.82276 0.495096 0.82276 0.185662 0.82276 0.334521 0.82276 0.655671 0.858529 0.495096 0.858529 0.933746 0.858529 0.80453 0.858529 0.185662 0.858529 0.334521 0.858529 0.655671 0.858529 0.80453 0.858529 0.185662 0.858529 0.056446 0.858529 0.495096 0.858529 0.334521 0.858529 0.655671 0.984437 0.495096 0.984437 0.185662 0.984437 0.334521 0.984437 0.933746 0.984437 0.80453 0.984437 0.185662 0.984437 0.056446 0.984437 0.495096 0.984437 0.334521 0.984437 0.80453 0.984437 0.655671 0.984437 0.171015 0.219444 0.061448 0.219444 0.061448 0.168679 0.061448 0.270652 0.171015 0.168679 0.171015 0.270652 0.230695 0.168679 0.230695 0.270652 0.230695 0.219444 0.761914 0.168679 0.761914 0.270652 0.793649 0.219444 0.171015 0.066063 0.171015 0.014856 0.061448 0.014856 0.230695 0.014856 0.061448 0.066063 0.230695 0.066063 0.061448 0.117271 0.230695 0.117271 0.171015 0.117271 0.761914 0.014856 0.761914 0.117271 0.793649 0.066063 0.061448 0.219444 0.029337 0.219444 0.029337 0.168679 0.029337 0.270652 0.061448 0.168679 0.061448 0.270652 0.793649 0.219444 0.761914 0.168679 0.761914 0.141344 0.816587 0.219444 0.761914 0.298694 0.761914 0.270652 0.171015 0.141344 0.061448 0.168679 0.061448 0.141344 0.171015 0.168679 0.230695 0.141344 0.230695 0.168679 0.761914 0.141344 0.761914 0.168679 0.171015 0.298694 0.061448 0.298694 0.061448 0.270652 0.171015 0.270652 0.230695 0.298694 0.230695 0.270652 0.761914 0.298694 0.761914 0.270652 0.176041 0.64489 0.329529 0.681927 0.329529 0.64489 0.176041 0.681927 0.329529 0.64489 0.495096 0.681927 0.495096 0.64489 0.329529 0.681927 0.495096 0.64489 0.660663 0.681927 0.660663 0.64489 0.495096 0.681927 0.660663 0.64489 0.814151 0.681927 0.814151 0.64489 0.660663 0.681927 0.814151 0.64489 0.947385 0.681927 0.947385 0.64489 0.814151 0.681927 0.947385 0.64489 0.814151 0.681927 0.814151 0.64489 0.947385 0.681927 0.814151 0.64489 0.660663 0.681927 0.660663 0.64489 0.814151 0.681927 0.660663 0.64489 0.495096 0.681927 0.495096 0.64489 0.660663 0.681927 0.495096 0.64489 0.329529 0.681927 0.329529 0.64489 0.495096 0.681927 0.329529 0.64489 0.176041 0.681927 0.176041 0.64489 0.329529 0.681927 0.176041 0.64489 0.042807 0.681927 0.042807 0.64489 0.176041 0.681927 0.042807 0.64489 0.176041 0.681927 0.176041 0.64489 0.042807 0.681927</float_array>
          <technique_common>
            <accessor source="#GeometrySource2-array" count="174" stride="2">
              <param name="S" type="float"/>
              <param name="T" type="float"/>
            </accessor>
          </technique_common>
        </source>
        <vertices id="Geometry-vertices">
          <input semantic="POSITION" source="#GeometrySource"/>
          <input semantic="NORMAL" source="#GeometrySource1"/>
          <input semantic="TEXCOORD" source="#GeometrySource2"/>
        </vertices>
        <triangles material="VisualMaterial0" count="188">
          <input semantic="VERTEX" source="#Geometry-vertices" offset="0"/>
          <p>0 1 2 0 3 1 0 2 4 0 5 3 0 4 6 0 7 5 0 6 8 0 9 7 0 8 10 0 11 9 0 12 11 0 10 12 1 13 2 1 3 14 1 14 13 4 15 6 4 16 15 2 13 16 4 2 16 5 7 17 5 17 18 3 18 14 5 18 3 8 19 10 8 20 19 6 15 20 8 6 20 9 11 21 9 21 22 7 22 17 9 22 7 10 19 23 12 10 23 11 24 21 12 23 24 12 24 11 13 25 16 13 26 25 13 14 26 18 17 27 28 26 14 18 28 14 18 27 28 15 29 20 15 30 29 30 16 25 15 16 30 22 21 31 22 31 32 32 27 17 22 32 17 24 23 33 24 33 34 34 31 21 24 34 21 35 20 29 19 20 35 36 33 23 19 35 36 19 36 23 37 38 39 37 40 38 37 39 41 37 42 40 37 41 43 37 44 42 37 43 45 37 46 44 37 45 47 37 48 46 37 49 48 37 47 49 38 50 39 38 51 50 38 40 51 41 52 43 39 50 53 41 39 53 41 53 52 42 44 54 42 54 55 40 55 51 42 55 40 45 56 47 45 57 56 43 52 57 45 43 57 46 48 58 46 58 59 44 59 54 46 59 44 47 56 60 49 47 60 48 61 58 49 60 61 49 61 48 50 62 53 50 51 63 50 63 62 55 54 64 65 63 51 55 65 51 55 64 65 52 66 57 52 53 67 52 67 66 67 53 62 59 58 68 69 64 54 59 69 54 59 68 69 61 60 70 61 70 71 71 68 58 61 71 58 72 57 66 56 57 72 73 70 60 56 73 60 56 72 73 74 75 76 74 77 75 74 76 78 74 79 77 74 78 80 74 81 79 74 80 82 74 82 81 80 83 82 81 82 84 82 85 84 83 85 82 86 87 88 86 89 87 86 88 90 86 91 89 86 90 92 86 93 91 86 92 94 86 94 93 89 91 95 93 96 91 95 91 97 97 91 96 98 99 100 98 101 99 98 100 102 98 103 101 104 105 106 104 106 107 104 107 108 104 108 109 110 111 112 110 113 111 110 114 113 114 115 113 114 116 115 116 117 115 118 119 120 118 120 121 118 121 122 121 123 122 123 124 122 123 125 124 126 127 128 126 129 127 130 131 132 130 133 131 134 135 136 134 137 135 138 139 140 138 141 139 142 143 144 142 145 143 146 147 148 146 149 147 150 151 152 150 153 151 154 155 156 154 157 155 158 159 160 158 161 159 162 163 164 162 165 163 166 167 168 166 169 167 170 171 172 170 173 171</p>
        </triangles>
      </mesh>
    </geometry>
  </library_geometries>
  <library_controllers>
    <controller id="Controller">
      <skin source="#Geometry">
        <bind_shape_matrix>1 0 0 0 0 1 0 0 0 0 1 0 0 0 0 1</bind_shape_matrix>
        <source id="Controller-joints">
          <Name_array id="Controller-joints-array" count="1">huraipan_model</Name_array>
          <technique_common>
            <accessor source="#Controller-joints-array" count="1" stride="1">
              <param name="JOINT" type="Name"/>
            </accessor>
          </technique_common>
        </source>
        <source id="Controller-bind_poses">
          <float_array id="Controller-bind_poses-array" count="16">1 0 0 0 0 1 0 0 0 0 1 0 0 0 0 1</float_array>
          <technique_common>
            <accessor source="#Controller-bind_poses-array" count="1" stride="16">
              <param name="TRANSFORM" type="float4x4"/>
            </accessor>
          </technique_common>
        </source>
        <source id="Controller-weights">
          <float_array id="Controller-weights-array" count="1">1</float_array>
          <technique_common>
            <accessor source="#Controller-weights-array" count="1" stride="1">
              <param name="WEIGHT" type="float"/>
            </accessor>
          </technique_common>
        </source>
        <joints>
          <input semantic="JOINT" source="#Controller-joints"/>
          <input semantic="INV_BIND_MATRIX" source="#Controller-bind_poses"/>
        </joints>
        <vertex_weights count="174">
          <input semantic="JOINT" source="#Controller-joints" offset="0"/>
          <input semantic="WEIGHT" source="#Controller-weights" offset="1"/>
          <vcount>1 1 1 1 1 1 1 1 1 1 1 1 1 1 1 1 1 1 1 1 1 1 1 1 1 1 1 1 1 1 1 1 1 1 1 1 1 1 1 1 1 1 1 1 1 1 1 1 1 1 1 1 1 1 1 1 1 1 1 1 1 1 1 1 1 1 1 1 1 1 1 1 1 1 1 1 1 1 1 1 1 1 1 1 1 1 1 1 1 1 1 1 1 1 1 1 1 1 1 1 1 1 1 1 1 1 1 1 1 1 1 1 1 1 1 1 1 1 1 1 1 1 1 1 1 1 1 1 1 1 1 1 1 1 1 1 1 1 1 1 1 1 1 1 1 1 1 1 1 1 1 1 1 1 1 1 1 1 1 1 1 1 1 1 1 1 1 1 1 1 1 1 1 1 </vcount>
          <v>0 0 0 0 0 0 0 0 0 0 0 0 0 0 0 0 0 0 0 0 0 0 0 0 0 0 0 0 0 0 0 0 0 0 0 0 0 0 0 0 0 0 0 0 0 0 0 0 0 0 0 0 0 0 0 0 0 0 0 0 0 0 0 0 0 0 0 0 0 0 0 0 0 0 0 0 0 0 0 0 0 0 0 0 0 0 0 0 0 0 0 0 0 0 0 0 0 0 0 0 0 0 0 0 0 0 0 0 0 0 0 0 0 0 0 0 0 0 0 0 0 0 0 0 0 0 0 0 0 0 0 0 0 0 0 0 0 0 0 0 0 0 0 0 0 0 0 0 0 0 0 0 0 0 0 0 0 0 0 0 0 0 0 0 0 0 0 0 0 0 0 0 0 0 0 0 0 0 0 0 0 0 0 0 0 0 0 0 0 0 0 0 0 0 0 0 0 0 0 0 0 0 0 0 0 0 0 0 0 0 0 0 0 0 0 0 0 0 0 0 0 0 0 0 0 0 0 0 0 0 0 0 0 0 0 0 0 0 0 0 0 0 0 0 0 0 0 0 0 0 0 0 0 0 0 0 0 0 0 0 0 0 0 0 0 0 0 0 0 0 0 0 0 0 0 0 0 0 0 0 0 0 0 0 0 0 0 0 0 0 0 0 0 0 0 0 0 0 0 0 0 0 0 0 0 0 0 0 0 0 0 0 0 0 0 0 0 0 0 0 0 0 0 0 0 0 0 0 0 0 0 0 0 0 0 0 0 0 0 0 0 0 0 0 0 0 0 0</v>
        </vertex_weights>
      </skin>
      <extra>
        <technique profile="FCOLLADA">
          <user_properties>SkinController</user_properties>
        </technique>
      </extra>
    </controller>
  </library_controllers>
  <library_visual_scenes>
    <visual_scene id="VisualSceneNode" name="rdmscene">
      <node id="VisualSceneNode1" name="huraipan_model" sid="huraipan_model" type="JOINT">
        <matrix>1 0 0 0 0 1 0 0 0 0 1 0 0 0 0 1</matrix>
      </node>
      <node id="VisualSceneNode2" name="mesh_0_huraipan_model" type="NODE">
        <matrix>1 0 0 0 0 1 0 0 0 0 1 0 0 0 0 1</matrix>
        <instance_controller url="#Controller">
          <skeleton>#VisualSceneNode1</skeleton>
          <bind_material>
            <technique_common>
              <instance_material symbol="VisualMaterial0" target="#VisualMaterial"/>
            </technique_common>
          </bind_material>
        </instance_controller>
      </node>
    </visual_scene>
  </library_visual_scenes>
  <scene>
    <instance_visual_scene url="#VisualSceneNode"/>
  </scene>
</COLLADA>
