version 1
nodes
  0 "huraipan_model"  -1
end
skeleton
time 0
  0 0.000000 0.000000 0.000000 0.000000 -0.000000 0.000000
end
triangles
..\..\..\Desktop\General\noesis\at07_huraipan
  0 9.782450 -12.527100 49.706299 0.000000 -1.000000 0.000000 0.495096 0.331238 1 0 1.000000
  0 16.969299 -12.527100 37.258301 0.067054 -0.990967 -0.116141 0.814151 0.464540 1 0 1.000000
  0 22.230400 -12.527100 42.519402 0.116141 -0.990967 -0.067054 0.660663 0.464540 1 0 1.000000
..\..\..\Desktop\General\noesis\at07_huraipan
  0 9.782450 -12.527100 49.706299 0.000000 -1.000000 0.000000 0.495096 0.331238 1 0 1.000000
  0 9.782450 -12.527100 35.332600 0.000000 -0.991114 -0.133015 0.947385 0.464540 1 0 1.000000
  0 16.969299 -12.527100 37.258301 0.067054 -0.990967 -0.116141 0.814151 0.464540 1 0 1.000000
..\..\..\Desktop\General\noesis\at07_huraipan
  0 9.782450 -12.527100 49.706299 0.000000 -1.000000 0.000000 0.495096 0.331238 1 0 1.000000
  0 22.230400 -12.527100 42.519402 0.116141 -0.990967 -0.067054 0.660663 0.464540 1 0 1.000000
  0 24.156200 -12.527100 49.706299 0.134108 -0.990967 0.000000 0.495096 0.464540 1 0 1.000000
..\..\..\Desktop\General\noesis\at07_huraipan
  0 9.782450 -12.527100 49.706299 0.000000 -1.000000 0.000000 0.495096 0.331238 1 0 1.000000
  0 2.595600 -12.527100 37.258301 -0.067054 -0.990967 -0.116141 0.814151 0.464540 1 0 1.000000
  0 9.782450 -12.527100 35.332600 0.000000 -0.991114 -0.133015 0.947385 0.464540 1 0 1.000000
..\..\..\Desktop\General\noesis\at07_huraipan
  0 9.782450 -12.527100 49.706299 0.000000 -1.000000 0.000000 0.495096 0.331238 1 0 1.000000
  0 24.156200 -12.527100 49.706299 0.134108 -0.990967 0.000000 0.495096 0.464540 1 0 1.000000
  0 22.230400 -12.527100 56.893200 0.116141 -0.990967 0.067054 0.329529 0.464540 1 0 1.000000
..\..\..\Desktop\General\noesis\at07_huraipan
  0 9.782450 -12.527100 49.706299 0.000000 -1.000000 0.000000 0.495096 0.331238 1 0 1.000000
  0 -2.665540 -12.527100 42.519402 -0.116141 -0.990967 -0.067054 0.660663 0.464540 1 0 1.000000
  0 2.595600 -12.527100 37.258301 -0.067054 -0.990967 -0.116141 0.814151 0.464540 1 0 1.000000
..\..\..\Desktop\General\noesis\at07_huraipan
  0 9.782450 -12.527100 49.706299 0.000000 -1.000000 0.000000 0.495096 0.331238 1 0 1.000000
  0 22.230400 -12.527100 56.893200 0.116141 -0.990967 0.067054 0.329529 0.464540 1 0 1.000000
  0 16.969299 -12.527100 62.154301 0.067054 -0.990967 0.116141 0.176041 0.464540 1 0 1.000000
..\..\..\Desktop\General\noesis\at07_huraipan
  0 9.782450 -12.527100 49.706299 0.000000 -1.000000 0.000000 0.495096 0.331238 1 0 1.000000
  0 -4.591260 -12.527100 49.706299 -0.134108 -0.990967 0.000000 0.495096 0.464540 1 0 1.000000
  0 -2.665540 -12.527100 42.519402 -0.116141 -0.990967 -0.067054 0.660663 0.464540 1 0 1.000000
..\..\..\Desktop\General\noesis\at07_huraipan
  0 9.782450 -12.527100 49.706299 0.000000 -1.000000 0.000000 0.495096 0.331238 1 0 1.000000
  0 16.969299 -12.527100 62.154301 0.067054 -0.990967 0.116141 0.176041 0.464540 1 0 1.000000
  0 9.782450 -12.527100 64.080002 0.000000 -0.990967 0.134108 0.042808 0.464540 1 0 1.000000
..\..\..\Desktop\General\noesis\at07_huraipan
  0 9.782450 -12.527100 49.706299 0.000000 -1.000000 0.000000 0.495096 0.331238 1 0 1.000000
  0 -2.665540 -12.527100 56.893200 -0.116141 -0.990967 0.067054 0.329529 0.464540 1 0 1.000000
  0 -4.591260 -12.527100 49.706299 -0.134108 -0.990967 0.000000 0.495096 0.464540 1 0 1.000000
..\..\..\Desktop\General\noesis\at07_huraipan
  0 9.782450 -12.527100 49.706299 0.000000 -1.000000 0.000000 0.495096 0.331238 1 0 1.000000
  0 2.595600 -12.527100 62.154301 -0.067054 -0.990967 0.116141 0.176041 0.464540 1 0 1.000000
  0 -2.665540 -12.527100 56.893200 -0.116141 -0.990967 0.067054 0.329529 0.464540 1 0 1.000000
..\..\..\Desktop\General\noesis\at07_huraipan
  0 9.782450 -12.527100 49.706299 0.000000 -1.000000 0.000000 0.495096 0.331238 1 0 1.000000
  0 9.782450 -12.527100 64.080002 0.000000 -0.990967 0.134108 0.042808 0.464540 1 0 1.000000
  0 2.595600 -12.527100 62.154301 -0.067054 -0.990967 0.116141 0.176041 0.464540 1 0 1.000000
..\..\..\Desktop\General\noesis\at07_huraipan
  0 16.969299 -12.527100 37.258301 0.067054 -0.990967 -0.116141 0.814151 0.464540 1 0 1.000000
  0 24.326401 -11.552000 41.309399 0.607783 -0.712366 -0.350904 0.660663 0.507401 1 0 1.000000
  0 22.230400 -12.527100 42.519402 0.116141 -0.990967 -0.067054 0.660663 0.464540 1 0 1.000000
..\..\..\Desktop\General\noesis\at07_huraipan
  0 16.969299 -12.527100 37.258301 0.067054 -0.990967 -0.116141 0.814151 0.464540 1 0 1.000000
  0 9.782450 -12.527100 35.332600 0.000000 -0.991114 -0.133015 0.947385 0.464540 1 0 1.000000
  0 18.179399 -11.552000 35.162399 0.350904 -0.712366 -0.607783 0.814151 0.507401 1 0 1.000000
..\..\..\Desktop\General\noesis\at07_huraipan
  0 16.969299 -12.527100 37.258301 0.067054 -0.990967 -0.116141 0.814151 0.464540 1 0 1.000000
  0 18.179399 -11.552000 35.162399 0.350904 -0.712366 -0.607783 0.814151 0.507401 1 0 1.000000
  0 24.326401 -11.552000 41.309399 0.607783 -0.712366 -0.350904 0.660663 0.507401 1 0 1.000000
..\..\..\Desktop\General\noesis\at07_huraipan
  0 24.156200 -12.527100 49.706299 0.134108 -0.990967 0.000000 0.495096 0.464540 1 0 1.000000
  0 24.326401 -11.552000 58.103199 0.607783 -0.712366 0.350904 0.329529 0.507401 1 0 1.000000
  0 22.230400 -12.527100 56.893200 0.116141 -0.990967 0.067054 0.329529 0.464540 1 0 1.000000
..\..\..\Desktop\General\noesis\at07_huraipan
  0 24.156200 -12.527100 49.706299 0.134108 -0.990967 0.000000 0.495096 0.464540 1 0 1.000000
  0 26.576300 -11.552000 49.706299 0.701808 -0.712366 0.000000 0.495096 0.507401 1 0 1.000000
  0 24.326401 -11.552000 58.103199 0.607783 -0.712366 0.350904 0.329529 0.507401 1 0 1.000000
..\..\..\Desktop\General\noesis\at07_huraipan
  0 22.230400 -12.527100 42.519402 0.116141 -0.990967 -0.067054 0.660663 0.464540 1 0 1.000000
  0 24.326401 -11.552000 41.309399 0.607783 -0.712366 -0.350904 0.660663 0.507401 1 0 1.000000
  0 26.576300 -11.552000 49.706299 0.701808 -0.712366 0.000000 0.495096 0.507401 1 0 1.000000
..\..\..\Desktop\General\noesis\at07_huraipan
  0 24.156200 -12.527100 49.706299 0.134108 -0.990967 0.000000 0.495096 0.464540 1 0 1.000000
  0 22.230400 -12.527100 42.519402 0.116141 -0.990967 -0.067054 0.660663 0.464540 1 0 1.000000
  0 26.576300 -11.552000 49.706299 0.701808 -0.712366 0.000000 0.495096 0.507401 1 0 1.000000
..\..\..\Desktop\General\noesis\at07_huraipan
  0 2.595600 -12.527100 37.258301 -0.067054 -0.990967 -0.116141 0.814151 0.464540 1 0 1.000000
  0 -2.665540 -12.527100 42.519402 -0.116141 -0.990967 -0.067054 0.660663 0.464540 1 0 1.000000
  0 1.385510 -11.552000 35.162399 -0.350904 -0.712366 -0.607783 0.814151 0.507401 1 0 1.000000
..\..\..\Desktop\General\noesis\at07_huraipan
  0 2.595600 -12.527100 37.258301 -0.067054 -0.990967 -0.116141 0.814151 0.464540 1 0 1.000000
  0 1.385510 -11.552000 35.162399 -0.350904 -0.712366 -0.607783 0.814151 0.507401 1 0 1.000000
  0 9.782450 -11.552000 32.912399 0.000000 -0.712366 -0.701808 0.947385 0.507401 1 0 1.000000
..\..\..\Desktop\General\noesis\at07_huraipan
  0 9.782450 -12.527100 35.332600 0.000000 -0.991114 -0.133015 0.947385 0.464540 1 0 1.000000
  0 9.782450 -11.552000 32.912399 0.000000 -0.712366 -0.701808 0.947385 0.507401 1 0 1.000000
  0 18.179399 -11.552000 35.162399 0.350904 -0.712366 -0.607783 0.814151 0.507401 1 0 1.000000
..\..\..\Desktop\General\noesis\at07_huraipan
  0 2.595600 -12.527100 37.258301 -0.067054 -0.990967 -0.116141 0.814151 0.464540 1 0 1.000000
  0 9.782450 -11.552000 32.912399 0.000000 -0.712366 -0.701808 0.947385 0.507401 1 0 1.000000
  0 9.782450 -12.527100 35.332600 0.000000 -0.991114 -0.133015 0.947385 0.464540 1 0 1.000000
..\..\..\Desktop\General\noesis\at07_huraipan
  0 16.969299 -12.527100 62.154301 0.067054 -0.990967 0.116141 0.176041 0.464540 1 0 1.000000
  0 9.782450 -11.552000 66.500198 0.000000 -0.712366 0.701808 0.042808 0.507401 1 0 1.000000
  0 9.782450 -12.527100 64.080002 0.000000 -0.990967 0.134108 0.042808 0.464540 1 0 1.000000
..\..\..\Desktop\General\noesis\at07_huraipan
  0 16.969299 -12.527100 62.154301 0.067054 -0.990967 0.116141 0.176041 0.464540 1 0 1.000000
  0 18.179399 -11.552000 64.250198 0.350904 -0.712366 0.607784 0.176041 0.507401 1 0 1.000000
  0 9.782450 -11.552000 66.500198 0.000000 -0.712366 0.701808 0.042808 0.507401 1 0 1.000000
..\..\..\Desktop\General\noesis\at07_huraipan
  0 22.230400 -12.527100 56.893200 0.116141 -0.990967 0.067054 0.329529 0.464540 1 0 1.000000
  0 24.326401 -11.552000 58.103199 0.607783 -0.712366 0.350904 0.329529 0.507401 1 0 1.000000
  0 18.179399 -11.552000 64.250198 0.350904 -0.712366 0.607784 0.176041 0.507401 1 0 1.000000
..\..\..\Desktop\General\noesis\at07_huraipan
  0 16.969299 -12.527100 62.154301 0.067054 -0.990967 0.116141 0.176041 0.464540 1 0 1.000000
  0 22.230400 -12.527100 56.893200 0.116141 -0.990967 0.067054 0.329529 0.464540 1 0 1.000000
  0 18.179399 -11.552000 64.250198 0.350904 -0.712366 0.607784 0.176041 0.507401 1 0 1.000000
..\..\..\Desktop\General\noesis\at07_huraipan
  0 -4.591260 -12.527100 49.706299 -0.134108 -0.990967 0.000000 0.495096 0.464540 1 0 1.000000
  0 -2.665540 -12.527100 56.893200 -0.116141 -0.990967 0.067054 0.329529 0.464540 1 0 1.000000
  0 -7.011420 -11.552000 49.706299 -0.701808 -0.712366 0.000000 0.495096 0.507401 1 0 1.000000
..\..\..\Desktop\General\noesis\at07_huraipan
  0 -4.591260 -12.527100 49.706299 -0.134108 -0.990967 0.000000 0.495096 0.464540 1 0 1.000000
  0 -7.011420 -11.552000 49.706299 -0.701808 -0.712366 0.000000 0.495096 0.507401 1 0 1.000000
  0 -4.761470 -11.552000 41.309399 -0.607783 -0.712366 -0.350904 0.660663 0.507401 1 0 1.000000
..\..\..\Desktop\General\noesis\at07_huraipan
  0 -2.665540 -12.527100 42.519402 -0.116141 -0.990967 -0.067054 0.660663 0.464540 1 0 1.000000
  0 -4.761470 -11.552000 41.309399 -0.607783 -0.712366 -0.350904 0.660663 0.507401 1 0 1.000000
  0 1.385510 -11.552000 35.162399 -0.350904 -0.712366 -0.607783 0.814151 0.507401 1 0 1.000000
..\..\..\Desktop\General\noesis\at07_huraipan
  0 -4.591260 -12.527100 49.706299 -0.134108 -0.990967 0.000000 0.495096 0.464540 1 0 1.000000
  0 -4.761470 -11.552000 41.309399 -0.607783 -0.712366 -0.350904 0.660663 0.507401 1 0 1.000000
  0 -2.665540 -12.527100 42.519402 -0.116141 -0.990967 -0.067054 0.660663 0.464540 1 0 1.000000
..\..\..\Desktop\General\noesis\at07_huraipan
  0 9.782450 -12.527100 64.080002 0.000000 -0.990967 0.134108 0.042808 0.464540 1 0 1.000000
  0 9.782450 -11.552000 66.500198 0.000000 -0.712366 0.701808 0.042808 0.507401 1 0 1.000000
  0 1.385510 -11.552000 64.250198 -0.350904 -0.712366 0.607784 0.176041 0.507401 1 0 1.000000
..\..\..\Desktop\General\noesis\at07_huraipan
  0 2.595600 -12.527100 62.154301 -0.067054 -0.990967 0.116141 0.176041 0.464540 1 0 1.000000
  0 9.782450 -12.527100 64.080002 0.000000 -0.990967 0.134108 0.042808 0.464540 1 0 1.000000
  0 1.385510 -11.552000 64.250198 -0.350904 -0.712366 0.607784 0.176041 0.507401 1 0 1.000000
..\..\..\Desktop\General\noesis\at07_huraipan
  0 -2.665540 -12.527100 56.893200 -0.116141 -0.990967 0.067054 0.329529 0.464540 1 0 1.000000
  0 -4.761470 -11.552000 58.103199 -0.607783 -0.712366 0.350904 0.329529 0.507401 1 0 1.000000
  0 -7.011420 -11.552000 49.706299 -0.701808 -0.712366 0.000000 0.495096 0.507401 1 0 1.000000
..\..\..\Desktop\General\noesis\at07_huraipan
  0 2.595600 -12.527100 62.154301 -0.067054 -0.990967 0.116141 0.176041 0.464540 1 0 1.000000
  0 1.385510 -11.552000 64.250198 -0.350904 -0.712366 0.607784 0.176041 0.507401 1 0 1.000000
  0 -4.761470 -11.552000 58.103199 -0.607783 -0.712366 0.350904 0.329529 0.507401 1 0 1.000000
..\..\..\Desktop\General\noesis\at07_huraipan
  0 2.595600 -12.527100 62.154301 -0.067054 -0.990967 0.116141 0.176041 0.464540 1 0 1.000000
  0 -4.761470 -11.552000 58.103199 -0.607783 -0.712366 0.350904 0.329529 0.507401 1 0 1.000000
  0 -2.665540 -12.527100 56.893200 -0.116141 -0.990967 0.067054 0.329529 0.464540 1 0 1.000000
..\..\..\Desktop\General\noesis\at07_huraipan
  0 24.326401 -11.552000 41.309399 0.607783 -0.712366 -0.350904 0.660663 0.507401 1 0 1.000000
  0 32.923599 -4.461180 49.706299 0.745088 -0.666966 0.000000 0.495096 0.644890 1 0 1.000000
  0 26.576300 -11.552000 49.706299 0.701808 -0.712366 0.000000 0.495096 0.507401 1 0 1.000000
..\..\..\Desktop\General\noesis\at07_huraipan
  0 24.326401 -11.552000 41.309399 0.607783 -0.712366 -0.350904 0.660663 0.507401 1 0 1.000000
  0 29.823299 -4.461180 38.135700 0.645265 -0.666966 -0.372544 0.660663 0.644890 1 0 1.000000
  0 32.923599 -4.461180 49.706299 0.745088 -0.666966 0.000000 0.495096 0.644890 1 0 1.000000
..\..\..\Desktop\General\noesis\at07_huraipan
  0 24.326401 -11.552000 41.309399 0.607783 -0.712366 -0.350904 0.660663 0.507401 1 0 1.000000
  0 18.179399 -11.552000 35.162399 0.350904 -0.712366 -0.607783 0.814151 0.507401 1 0 1.000000
  0 29.823299 -4.461180 38.135700 0.645265 -0.666966 -0.372544 0.660663 0.644890 1 0 1.000000
..\..\..\Desktop\General\noesis\at07_huraipan
  0 9.782450 -11.552000 32.912399 0.000000 -0.712366 -0.701808 0.947385 0.507401 1 0 1.000000
  0 1.385510 -11.552000 35.162399 -0.350904 -0.712366 -0.607783 0.814151 0.507401 1 0 1.000000
  0 9.782450 -4.461180 26.565100 0.000000 -0.659190 -0.751976 0.947385 0.644890 1 0 1.000000
..\..\..\Desktop\General\noesis\at07_huraipan
  0 21.353001 -4.461180 29.665400 0.372544 -0.666966 -0.645265 0.814151 0.644890 1 0 1.000000
  0 29.823299 -4.461180 38.135700 0.645265 -0.666966 -0.372544 0.660663 0.644890 1 0 1.000000
  0 18.179399 -11.552000 35.162399 0.350904 -0.712366 -0.607783 0.814151 0.507401 1 0 1.000000
..\..\..\Desktop\General\noesis\at07_huraipan
  0 9.782450 -11.552000 32.912399 0.000000 -0.712366 -0.701808 0.947385 0.507401 1 0 1.000000
  0 21.353001 -4.461180 29.665400 0.372544 -0.666966 -0.645265 0.814151 0.644890 1 0 1.000000
  0 18.179399 -11.552000 35.162399 0.350904 -0.712366 -0.607783 0.814151 0.507401 1 0 1.000000
..\..\..\Desktop\General\noesis\at07_huraipan
  0 9.782450 -11.552000 32.912399 0.000000 -0.712366 -0.701808 0.947385 0.507401 1 0 1.000000
  0 9.782450 -4.461180 26.565100 0.000000 -0.659190 -0.751976 0.947385 0.644890 1 0 1.000000
  0 21.353001 -4.461180 29.665400 0.372544 -0.666966 -0.645265 0.814151 0.644890 1 0 1.000000
..\..\..\Desktop\General\noesis\at07_huraipan
  0 24.326401 -11.552000 58.103199 0.607783 -0.712366 0.350904 0.329529 0.507401 1 0 1.000000
  0 21.353001 -4.461180 69.747200 0.372544 -0.666966 0.645265 0.176041 0.644890 1 0 1.000000
  0 18.179399 -11.552000 64.250198 0.350904 -0.712366 0.607784 0.176041 0.507401 1 0 1.000000
..\..\..\Desktop\General\noesis\at07_huraipan
  0 24.326401 -11.552000 58.103199 0.607783 -0.712366 0.350904 0.329529 0.507401 1 0 1.000000
  0 29.823299 -4.461180 61.276901 0.645265 -0.666966 0.372544 0.329529 0.644890 1 0 1.000000
  0 21.353001 -4.461180 69.747200 0.372544 -0.666966 0.645265 0.176041 0.644890 1 0 1.000000
..\..\..\Desktop\General\noesis\at07_huraipan
  0 29.823299 -4.461180 61.276901 0.645265 -0.666966 0.372544 0.329529 0.644890 1 0 1.000000
  0 26.576300 -11.552000 49.706299 0.701808 -0.712366 0.000000 0.495096 0.507401 1 0 1.000000
  0 32.923599 -4.461180 49.706299 0.745088 -0.666966 0.000000 0.495096 0.644890 1 0 1.000000
..\..\..\Desktop\General\noesis\at07_huraipan
  0 24.326401 -11.552000 58.103199 0.607783 -0.712366 0.350904 0.329529 0.507401 1 0 1.000000
  0 26.576300 -11.552000 49.706299 0.701808 -0.712366 0.000000 0.495096 0.507401 1 0 1.000000
  0 29.823299 -4.461180 61.276901 0.645265 -0.666966 0.372544 0.329529 0.644890 1 0 1.000000
..\..\..\Desktop\General\noesis\at07_huraipan
  0 -4.761470 -11.552000 41.309399 -0.607783 -0.712366 -0.350904 0.660663 0.507401 1 0 1.000000
  0 -7.011420 -11.552000 49.706299 -0.701808 -0.712366 0.000000 0.495096 0.507401 1 0 1.000000
  0 -10.258400 -4.461180 38.135700 -0.645265 -0.666966 -0.372544 0.660663 0.644890 1 0 1.000000
..\..\..\Desktop\General\noesis\at07_huraipan
  0 -4.761470 -11.552000 41.309399 -0.607783 -0.712366 -0.350904 0.660663 0.507401 1 0 1.000000
  0 -10.258400 -4.461180 38.135700 -0.645265 -0.666966 -0.372544 0.660663 0.644890 1 0 1.000000
  0 -1.788150 -4.461180 29.665400 -0.372544 -0.666966 -0.645265 0.814151 0.644890 1 0 1.000000
..\..\..\Desktop\General\noesis\at07_huraipan
  0 -1.788150 -4.461180 29.665400 -0.372544 -0.666966 -0.645265 0.814151 0.644890 1 0 1.000000
  0 9.782450 -4.461180 26.565100 0.000000 -0.659190 -0.751976 0.947385 0.644890 1 0 1.000000
  0 1.385510 -11.552000 35.162399 -0.350904 -0.712366 -0.607783 0.814151 0.507401 1 0 1.000000
..\..\..\Desktop\General\noesis\at07_huraipan
  0 -4.761470 -11.552000 41.309399 -0.607783 -0.712366 -0.350904 0.660663 0.507401 1 0 1.000000
  0 -1.788150 -4.461180 29.665400 -0.372544 -0.666966 -0.645265 0.814151 0.644890 1 0 1.000000
  0 1.385510 -11.552000 35.162399 -0.350904 -0.712366 -0.607783 0.814151 0.507401 1 0 1.000000
..\..\..\Desktop\General\noesis\at07_huraipan
  0 -4.761470 -11.552000 58.103199 -0.607783 -0.712366 0.350904 0.329529 0.507401 1 0 1.000000
  0 1.385510 -11.552000 64.250198 -0.350904 -0.712366 0.607784 0.176041 0.507401 1 0 1.000000
  0 -10.258400 -4.461180 61.276901 -0.645265 -0.666966 0.372544 0.329529 0.644890 1 0 1.000000
..\..\..\Desktop\General\noesis\at07_huraipan
  0 -4.761470 -11.552000 58.103199 -0.607783 -0.712366 0.350904 0.329529 0.507401 1 0 1.000000
  0 -10.258400 -4.461180 61.276901 -0.645265 -0.666966 0.372544 0.329529 0.644890 1 0 1.000000
  0 -13.358700 -4.461180 49.706299 -0.745088 -0.666966 0.000000 0.495096 0.644890 1 0 1.000000
..\..\..\Desktop\General\noesis\at07_huraipan
  0 -13.358700 -4.461180 49.706299 -0.745088 -0.666966 0.000000 0.495096 0.644890 1 0 1.000000
  0 -10.258400 -4.461180 38.135700 -0.645265 -0.666966 -0.372544 0.660663 0.644890 1 0 1.000000
  0 -7.011420 -11.552000 49.706299 -0.701808 -0.712366 0.000000 0.495096 0.507401 1 0 1.000000
..\..\..\Desktop\General\noesis\at07_huraipan
  0 -4.761470 -11.552000 58.103199 -0.607783 -0.712366 0.350904 0.329529 0.507401 1 0 1.000000
  0 -13.358700 -4.461180 49.706299 -0.745088 -0.666966 0.000000 0.495096 0.644890 1 0 1.000000
  0 -7.011420 -11.552000 49.706299 -0.701808 -0.712366 0.000000 0.495096 0.507401 1 0 1.000000
..\..\..\Desktop\General\noesis\at07_huraipan
  0 9.782450 -4.461180 72.847504 0.000000 -0.666966 0.745088 0.042808 0.644890 1 0 1.000000
  0 18.179399 -11.552000 64.250198 0.350904 -0.712366 0.607784 0.176041 0.507401 1 0 1.000000
  0 21.353001 -4.461180 69.747200 0.372544 -0.666966 0.645265 0.176041 0.644890 1 0 1.000000
..\..\..\Desktop\General\noesis\at07_huraipan
  0 9.782450 -11.552000 66.500198 0.000000 -0.712366 0.701808 0.042808 0.507401 1 0 1.000000
  0 18.179399 -11.552000 64.250198 0.350904 -0.712366 0.607784 0.176041 0.507401 1 0 1.000000
  0 9.782450 -4.461180 72.847504 0.000000 -0.666966 0.745088 0.042808 0.644890 1 0 1.000000
..\..\..\Desktop\General\noesis\at07_huraipan
  0 -1.788150 -4.461180 69.747200 -0.372544 -0.666966 0.645265 0.176041 0.644890 1 0 1.000000
  0 -10.258400 -4.461180 61.276901 -0.645265 -0.666966 0.372544 0.329529 0.644890 1 0 1.000000
  0 1.385510 -11.552000 64.250198 -0.350904 -0.712366 0.607784 0.176041 0.507401 1 0 1.000000
..\..\..\Desktop\General\noesis\at07_huraipan
  0 9.782450 -11.552000 66.500198 0.000000 -0.712366 0.701808 0.042808 0.507401 1 0 1.000000
  0 9.782450 -4.461180 72.847504 0.000000 -0.666966 0.745088 0.042808 0.644890 1 0 1.000000
  0 -1.788150 -4.461180 69.747200 -0.372544 -0.666966 0.645265 0.176041 0.644890 1 0 1.000000
..\..\..\Desktop\General\noesis\at07_huraipan
  0 9.782450 -11.552000 66.500198 0.000000 -0.712366 0.701808 0.042808 0.507401 1 0 1.000000
  0 -1.788150 -4.461180 69.747200 -0.372544 -0.666966 0.645265 0.176041 0.644890 1 0 1.000000
  0 1.385510 -11.552000 64.250198 -0.350904 -0.712366 0.607784 0.176041 0.507401 1 0 1.000000
..\..\..\Desktop\General\noesis\at07_huraipan
  0 9.782450 -12.381300 49.706299 0.000000 1.000000 0.000000 0.495096 0.718154 1 0 1.000000
  0 21.855101 -12.381300 42.736198 -0.116141 0.990967 0.067054 0.655671 0.822760 1 0 1.000000
  0 16.752600 -12.381300 37.633701 -0.067054 0.990967 0.116141 0.804530 0.822760 1 0 1.000000
..\..\..\Desktop\General\noesis\at07_huraipan
  0 9.782450 -12.381300 49.706299 0.000000 1.000000 0.000000 0.495096 0.718154 1 0 1.000000
  0 23.722700 -12.381300 49.706299 -0.134108 0.990967 0.000000 0.495096 0.822760 1 0 1.000000
  0 21.855101 -12.381300 42.736198 -0.116141 0.990967 0.067054 0.655671 0.822760 1 0 1.000000
..\..\..\Desktop\General\noesis\at07_huraipan
  0 9.782450 -12.381300 49.706299 0.000000 1.000000 0.000000 0.495096 0.718154 1 0 1.000000
  0 16.752600 -12.381300 37.633701 -0.067054 0.990967 0.116141 0.804530 0.822760 1 0 1.000000
  0 9.782450 -12.381300 35.765999 0.000000 0.990124 0.140195 0.933746 0.822760 1 0 1.000000
..\..\..\Desktop\General\noesis\at07_huraipan
  0 9.782450 -12.381300 49.706299 0.000000 1.000000 0.000000 0.495096 0.718154 1 0 1.000000
  0 21.855101 -12.381300 56.676399 -0.116141 0.990967 -0.067054 0.334521 0.822760 1 0 1.000000
  0 23.722700 -12.381300 49.706299 -0.134108 0.990967 0.000000 0.495096 0.822760 1 0 1.000000
..\..\..\Desktop\General\noesis\at07_huraipan
  0 9.782450 -12.381300 49.706299 0.000000 1.000000 0.000000 0.495096 0.718154 1 0 1.000000
  0 9.782450 -12.381300 35.765999 0.000000 0.990124 0.140195 0.933746 0.822760 1 0 1.000000
  0 2.812310 -12.381300 37.633701 0.067054 0.990967 0.116141 0.804530 0.822760 1 0 1.000000
..\..\..\Desktop\General\noesis\at07_huraipan
  0 9.782450 -12.381300 49.706299 0.000000 1.000000 0.000000 0.495096 0.718154 1 0 1.000000
  0 16.752600 -12.381300 61.778900 -0.067054 0.990967 -0.116141 0.185662 0.822760 1 0 1.000000
  0 21.855101 -12.381300 56.676399 -0.116141 0.990967 -0.067054 0.334521 0.822760 1 0 1.000000
..\..\..\Desktop\General\noesis\at07_huraipan
  0 9.782450 -12.381300 49.706299 0.000000 1.000000 0.000000 0.495096 0.718154 1 0 1.000000
  0 2.812310 -12.381300 37.633701 0.067054 0.990967 0.116141 0.804530 0.822760 1 0 1.000000
  0 -2.290180 -12.381300 42.736198 0.116141 0.990967 0.067054 0.655671 0.822760 1 0 1.000000
..\..\..\Desktop\General\noesis\at07_huraipan
  0 9.782450 -12.381300 49.706299 0.000000 1.000000 0.000000 0.495096 0.718154 1 0 1.000000
  0 9.782450 -12.381300 63.646599 0.000000 0.990967 -0.134108 0.056446 0.822760 1 0 1.000000
  0 16.752600 -12.381300 61.778900 -0.067054 0.990967 -0.116141 0.185662 0.822760 1 0 1.000000
..\..\..\Desktop\General\noesis\at07_huraipan
  0 9.782450 -12.381300 49.706299 0.000000 1.000000 0.000000 0.495096 0.718154 1 0 1.000000
  0 -2.290180 -12.381300 42.736198 0.116141 0.990967 0.067054 0.655671 0.822760 1 0 1.000000
  0 -4.157820 -12.381300 49.706299 0.134108 0.990967 0.000000 0.495096 0.822760 1 0 1.000000
..\..\..\Desktop\General\noesis\at07_huraipan
  0 9.782450 -12.381300 49.706299 0.000000 1.000000 0.000000 0.495096 0.718154 1 0 1.000000
  0 2.812310 -12.381300 61.778900 0.067054 0.990967 -0.116141 0.185662 0.822760 1 0 1.000000
  0 9.782450 -12.381300 63.646599 0.000000 0.990967 -0.134108 0.056446 0.822760 1 0 1.000000
..\..\..\Desktop\General\noesis\at07_huraipan
  0 9.782450 -12.381300 49.706299 0.000000 1.000000 0.000000 0.495096 0.718154 1 0 1.000000
  0 -2.290180 -12.381300 56.676399 0.116141 0.990967 -0.067054 0.334521 0.822760 1 0 1.000000
  0 2.812310 -12.381300 61.778900 0.067054 0.990967 -0.116141 0.185662 0.822760 1 0 1.000000
..\..\..\Desktop\General\noesis\at07_huraipan
  0 9.782450 -12.381300 49.706299 0.000000 1.000000 0.000000 0.495096 0.718154 1 0 1.000000
  0 -4.157820 -12.381300 49.706299 0.134108 0.990967 0.000000 0.495096 0.822760 1 0 1.000000
  0 -2.290180 -12.381300 56.676399 0.116141 0.990967 -0.067054 0.334521 0.822760 1 0 1.000000
..\..\..\Desktop\General\noesis\at07_huraipan
  0 21.855101 -12.381300 42.736198 -0.116141 0.990967 0.067054 0.655671 0.822760 1 0 1.000000
  0 23.887800 -11.435600 41.562599 -0.607783 0.712366 0.350904 0.655671 0.858529 1 0 1.000000
  0 16.752600 -12.381300 37.633701 -0.067054 0.990967 0.116141 0.804530 0.822760 1 0 1.000000
..\..\..\Desktop\General\noesis\at07_huraipan
  0 21.855101 -12.381300 42.736198 -0.116141 0.990967 0.067054 0.655671 0.822760 1 0 1.000000
  0 26.069901 -11.435600 49.706299 -0.701808 0.712367 0.000000 0.495096 0.858529 1 0 1.000000
  0 23.887800 -11.435600 41.562599 -0.607783 0.712366 0.350904 0.655671 0.858529 1 0 1.000000
..\..\..\Desktop\General\noesis\at07_huraipan
  0 21.855101 -12.381300 42.736198 -0.116141 0.990967 0.067054 0.655671 0.822760 1 0 1.000000
  0 23.722700 -12.381300 49.706299 -0.134108 0.990967 0.000000 0.495096 0.822760 1 0 1.000000
  0 26.069901 -11.435600 49.706299 -0.701808 0.712367 0.000000 0.495096 0.858529 1 0 1.000000
..\..\..\Desktop\General\noesis\at07_huraipan
  0 9.782450 -12.381300 35.765999 0.000000 0.990124 0.140195 0.933746 0.822760 1 0 1.000000
  0 9.782450 -11.435600 33.418800 0.000000 0.712366 0.701808 0.933746 0.858529 1 0 1.000000
  0 2.812310 -12.381300 37.633701 0.067054 0.990967 0.116141 0.804530 0.822760 1 0 1.000000
..\..\..\Desktop\General\noesis\at07_huraipan
  0 16.752600 -12.381300 37.633701 -0.067054 0.990967 0.116141 0.804530 0.822760 1 0 1.000000
  0 23.887800 -11.435600 41.562599 -0.607783 0.712366 0.350904 0.655671 0.858529 1 0 1.000000
  0 17.926201 -11.435600 35.600899 -0.350904 0.712366 0.607783 0.804530 0.858529 1 0 1.000000
..\..\..\Desktop\General\noesis\at07_huraipan
  0 9.782450 -12.381300 35.765999 0.000000 0.990124 0.140195 0.933746 0.822760 1 0 1.000000
  0 16.752600 -12.381300 37.633701 -0.067054 0.990967 0.116141 0.804530 0.822760 1 0 1.000000
  0 17.926201 -11.435600 35.600899 -0.350904 0.712366 0.607783 0.804530 0.858529 1 0 1.000000
..\..\..\Desktop\General\noesis\at07_huraipan
  0 9.782450 -12.381300 35.765999 0.000000 0.990124 0.140195 0.933746 0.822760 1 0 1.000000
  0 17.926201 -11.435600 35.600899 -0.350904 0.712366 0.607783 0.804530 0.858529 1 0 1.000000
  0 9.782450 -11.435600 33.418800 0.000000 0.712366 0.701808 0.933746 0.858529 1 0 1.000000
..\..\..\Desktop\General\noesis\at07_huraipan
  0 21.855101 -12.381300 56.676399 -0.116141 0.990967 -0.067054 0.334521 0.822760 1 0 1.000000
  0 16.752600 -12.381300 61.778900 -0.067054 0.990967 -0.116141 0.185662 0.822760 1 0 1.000000
  0 17.926201 -11.435600 63.811600 -0.350904 0.712366 -0.607783 0.185662 0.858529 1 0 1.000000
..\..\..\Desktop\General\noesis\at07_huraipan
  0 21.855101 -12.381300 56.676399 -0.116141 0.990967 -0.067054 0.334521 0.822760 1 0 1.000000
  0 17.926201 -11.435600 63.811600 -0.350904 0.712366 -0.607783 0.185662 0.858529 1 0 1.000000
  0 23.887800 -11.435600 57.849998 -0.607783 0.712367 -0.350904 0.334521 0.858529 1 0 1.000000
..\..\..\Desktop\General\noesis\at07_huraipan
  0 23.722700 -12.381300 49.706299 -0.134108 0.990967 0.000000 0.495096 0.822760 1 0 1.000000
  0 23.887800 -11.435600 57.849998 -0.607783 0.712367 -0.350904 0.334521 0.858529 1 0 1.000000
  0 26.069901 -11.435600 49.706299 -0.701808 0.712367 0.000000 0.495096 0.858529 1 0 1.000000
..\..\..\Desktop\General\noesis\at07_huraipan
  0 21.855101 -12.381300 56.676399 -0.116141 0.990967 -0.067054 0.334521 0.822760 1 0 1.000000
  0 23.887800 -11.435600 57.849998 -0.607783 0.712367 -0.350904 0.334521 0.858529 1 0 1.000000
  0 23.722700 -12.381300 49.706299 -0.134108 0.990967 0.000000 0.495096 0.822760 1 0 1.000000
..\..\..\Desktop\General\noesis\at07_huraipan
  0 -2.290180 -12.381300 42.736198 0.116141 0.990967 0.067054 0.655671 0.822760 1 0 1.000000
  0 -4.322900 -11.435600 41.562599 0.607783 0.712366 0.350904 0.655671 0.858529 1 0 1.000000
  0 -4.157820 -12.381300 49.706299 0.134108 0.990967 0.000000 0.495096 0.822760 1 0 1.000000
..\..\..\Desktop\General\noesis\at07_huraipan
  0 -2.290180 -12.381300 42.736198 0.116141 0.990967 0.067054 0.655671 0.822760 1 0 1.000000
  0 1.638720 -11.435600 35.600899 0.350904 0.712366 0.607783 0.804530 0.858529 1 0 1.000000
  0 -4.322900 -11.435600 41.562599 0.607783 0.712366 0.350904 0.655671 0.858529 1 0 1.000000
..\..\..\Desktop\General\noesis\at07_huraipan
  0 2.812310 -12.381300 37.633701 0.067054 0.990967 0.116141 0.804530 0.822760 1 0 1.000000
  0 9.782450 -11.435600 33.418800 0.000000 0.712366 0.701808 0.933746 0.858529 1 0 1.000000
  0 1.638720 -11.435600 35.600899 0.350904 0.712366 0.607783 0.804530 0.858529 1 0 1.000000
..\..\..\Desktop\General\noesis\at07_huraipan
  0 -2.290180 -12.381300 42.736198 0.116141 0.990967 0.067054 0.655671 0.822760 1 0 1.000000
  0 2.812310 -12.381300 37.633701 0.067054 0.990967 0.116141 0.804530 0.822760 1 0 1.000000
  0 1.638720 -11.435600 35.600899 0.350904 0.712366 0.607783 0.804530 0.858529 1 0 1.000000
..\..\..\Desktop\General\noesis\at07_huraipan
  0 9.782450 -12.381300 63.646599 0.000000 0.990967 -0.134108 0.056446 0.822760 1 0 1.000000
  0 2.812310 -12.381300 61.778900 0.067054 0.990967 -0.116141 0.185662 0.822760 1 0 1.000000
  0 1.638720 -11.435600 63.811600 0.350904 0.712366 -0.607783 0.185662 0.858529 1 0 1.000000
..\..\..\Desktop\General\noesis\at07_huraipan
  0 9.782450 -12.381300 63.646599 0.000000 0.990967 -0.134108 0.056446 0.822760 1 0 1.000000
  0 1.638720 -11.435600 63.811600 0.350904 0.712366 -0.607783 0.185662 0.858529 1 0 1.000000
  0 9.782450 -11.435600 65.993797 0.000000 0.712366 -0.701808 0.056446 0.858529 1 0 1.000000
..\..\..\Desktop\General\noesis\at07_huraipan
  0 16.752600 -12.381300 61.778900 -0.067054 0.990967 -0.116141 0.185662 0.822760 1 0 1.000000
  0 9.782450 -11.435600 65.993797 0.000000 0.712366 -0.701808 0.056446 0.858529 1 0 1.000000
  0 17.926201 -11.435600 63.811600 -0.350904 0.712366 -0.607783 0.185662 0.858529 1 0 1.000000
..\..\..\Desktop\General\noesis\at07_huraipan
  0 9.782450 -12.381300 63.646599 0.000000 0.990967 -0.134108 0.056446 0.822760 1 0 1.000000
  0 9.782450 -11.435600 65.993797 0.000000 0.712366 -0.701808 0.056446 0.858529 1 0 1.000000
  0 16.752600 -12.381300 61.778900 -0.067054 0.990967 -0.116141 0.185662 0.822760 1 0 1.000000
..\..\..\Desktop\General\noesis\at07_huraipan
  0 -4.157820 -12.381300 49.706299 0.134108 0.990967 0.000000 0.495096 0.822760 1 0 1.000000
  0 -4.322900 -11.435600 41.562599 0.607783 0.712366 0.350904 0.655671 0.858529 1 0 1.000000
  0 -6.505010 -11.435600 49.706299 0.701808 0.712366 0.000000 0.495096 0.858529 1 0 1.000000
..\..\..\Desktop\General\noesis\at07_huraipan
  0 -2.290180 -12.381300 56.676399 0.116141 0.990967 -0.067054 0.334521 0.822760 1 0 1.000000
  0 -4.157820 -12.381300 49.706299 0.134108 0.990967 0.000000 0.495096 0.822760 1 0 1.000000
  0 -6.505010 -11.435600 49.706299 0.701808 0.712366 0.000000 0.495096 0.858529 1 0 1.000000
..\..\..\Desktop\General\noesis\at07_huraipan
  0 2.812310 -12.381300 61.778900 0.067054 0.990967 -0.116141 0.185662 0.822760 1 0 1.000000
  0 -4.322900 -11.435600 57.849998 0.607783 0.712366 -0.350904 0.334521 0.858529 1 0 1.000000
  0 1.638720 -11.435600 63.811600 0.350904 0.712366 -0.607783 0.185662 0.858529 1 0 1.000000
..\..\..\Desktop\General\noesis\at07_huraipan
  0 -2.290180 -12.381300 56.676399 0.116141 0.990967 -0.067054 0.334521 0.822760 1 0 1.000000
  0 -6.505010 -11.435600 49.706299 0.701808 0.712366 0.000000 0.495096 0.858529 1 0 1.000000
  0 -4.322900 -11.435600 57.849998 0.607783 0.712366 -0.350904 0.334521 0.858529 1 0 1.000000
..\..\..\Desktop\General\noesis\at07_huraipan
  0 -2.290180 -12.381300 56.676399 0.116141 0.990967 -0.067054 0.334521 0.822760 1 0 1.000000
  0 -4.322900 -11.435600 57.849998 0.607783 0.712366 -0.350904 0.334521 0.858529 1 0 1.000000
  0 2.812310 -12.381300 61.778900 0.067054 0.990967 -0.116141 0.185662 0.822760 1 0 1.000000
..\..\..\Desktop\General\noesis\at07_huraipan
  0 23.887800 -11.435600 41.562599 -0.607783 0.712366 0.350904 0.655671 0.858529 1 0 1.000000
  0 29.219000 -4.558590 38.484600 -0.645265 0.666966 0.372544 0.655671 0.984437 1 0 1.000000
  0 17.926201 -11.435600 35.600899 -0.350904 0.712366 0.607783 0.804530 0.858529 1 0 1.000000
..\..\..\Desktop\General\noesis\at07_huraipan
  0 23.887800 -11.435600 41.562599 -0.607783 0.712366 0.350904 0.655671 0.858529 1 0 1.000000
  0 26.069901 -11.435600 49.706299 -0.701808 0.712367 0.000000 0.495096 0.858529 1 0 1.000000
  0 32.225800 -4.558590 49.706299 -0.745088 0.666966 0.000000 0.495096 0.984437 1 0 1.000000
..\..\..\Desktop\General\noesis\at07_huraipan
  0 23.887800 -11.435600 41.562599 -0.607783 0.712366 0.350904 0.655671 0.858529 1 0 1.000000
  0 32.225800 -4.558590 49.706299 -0.745088 0.666966 0.000000 0.495096 0.984437 1 0 1.000000
  0 29.219000 -4.558590 38.484600 -0.645265 0.666966 0.372544 0.655671 0.984437 1 0 1.000000
..\..\..\Desktop\General\noesis\at07_huraipan
  0 23.887800 -11.435600 57.849998 -0.607783 0.712367 -0.350904 0.334521 0.858529 1 0 1.000000
  0 17.926201 -11.435600 63.811600 -0.350904 0.712366 -0.607783 0.185662 0.858529 1 0 1.000000
  0 21.004101 -4.558590 69.142799 -0.372544 0.666966 -0.645265 0.185662 0.984437 1 0 1.000000
..\..\..\Desktop\General\noesis\at07_huraipan
  0 29.219000 -4.558590 60.928001 -0.645265 0.666966 -0.372544 0.334521 0.984437 1 0 1.000000
  0 32.225800 -4.558590 49.706299 -0.745088 0.666966 0.000000 0.495096 0.984437 1 0 1.000000
  0 26.069901 -11.435600 49.706299 -0.701808 0.712367 0.000000 0.495096 0.858529 1 0 1.000000
..\..\..\Desktop\General\noesis\at07_huraipan
  0 23.887800 -11.435600 57.849998 -0.607783 0.712367 -0.350904 0.334521 0.858529 1 0 1.000000
  0 29.219000 -4.558590 60.928001 -0.645265 0.666966 -0.372544 0.334521 0.984437 1 0 1.000000
  0 26.069901 -11.435600 49.706299 -0.701808 0.712367 0.000000 0.495096 0.858529 1 0 1.000000
..\..\..\Desktop\General\noesis\at07_huraipan
  0 23.887800 -11.435600 57.849998 -0.607783 0.712367 -0.350904 0.334521 0.858529 1 0 1.000000
  0 21.004101 -4.558590 69.142799 -0.372544 0.666966 -0.645265 0.185662 0.984437 1 0 1.000000
  0 29.219000 -4.558590 60.928001 -0.645265 0.666966 -0.372544 0.334521 0.984437 1 0 1.000000
..\..\..\Desktop\General\noesis\at07_huraipan
  0 9.782450 -11.435600 33.418800 0.000000 0.712366 0.701808 0.933746 0.858529 1 0 1.000000
  0 9.782450 -4.558590 27.262899 0.000000 0.659612 0.751607 0.933746 0.984437 1 0 1.000000
  0 1.638720 -11.435600 35.600899 0.350904 0.712366 0.607783 0.804530 0.858529 1 0 1.000000
..\..\..\Desktop\General\noesis\at07_huraipan
  0 9.782450 -11.435600 33.418800 0.000000 0.712366 0.701808 0.933746 0.858529 1 0 1.000000
  0 17.926201 -11.435600 35.600899 -0.350904 0.712366 0.607783 0.804530 0.858529 1 0 1.000000
  0 21.004101 -4.558590 30.269800 -0.372544 0.666966 0.645265 0.804530 0.984437 1 0 1.000000
..\..\..\Desktop\General\noesis\at07_huraipan
  0 9.782450 -11.435600 33.418800 0.000000 0.712366 0.701808 0.933746 0.858529 1 0 1.000000
  0 21.004101 -4.558590 30.269800 -0.372544 0.666966 0.645265 0.804530 0.984437 1 0 1.000000
  0 9.782450 -4.558590 27.262899 0.000000 0.659612 0.751607 0.933746 0.984437 1 0 1.000000
..\..\..\Desktop\General\noesis\at07_huraipan
  0 21.004101 -4.558590 30.269800 -0.372544 0.666966 0.645265 0.804530 0.984437 1 0 1.000000
  0 17.926201 -11.435600 35.600899 -0.350904 0.712366 0.607783 0.804530 0.858529 1 0 1.000000
  0 29.219000 -4.558590 38.484600 -0.645265 0.666966 0.372544 0.655671 0.984437 1 0 1.000000
..\..\..\Desktop\General\noesis\at07_huraipan
  0 9.782450 -11.435600 65.993797 0.000000 0.712366 -0.701808 0.056446 0.858529 1 0 1.000000
  0 1.638720 -11.435600 63.811600 0.350904 0.712366 -0.607783 0.185662 0.858529 1 0 1.000000
  0 -1.439240 -4.558590 69.142799 0.372544 0.666966 -0.645265 0.185662 0.984437 1 0 1.000000
..\..\..\Desktop\General\noesis\at07_huraipan
  0 9.782450 -4.558590 72.149696 0.000000 0.666966 -0.745088 0.056446 0.984437 1 0 1.000000
  0 21.004101 -4.558590 69.142799 -0.372544 0.666966 -0.645265 0.185662 0.984437 1 0 1.000000
  0 17.926201 -11.435600 63.811600 -0.350904 0.712366 -0.607783 0.185662 0.858529 1 0 1.000000
..\..\..\Desktop\General\noesis\at07_huraipan
  0 9.782450 -11.435600 65.993797 0.000000 0.712366 -0.701808 0.056446 0.858529 1 0 1.000000
  0 9.782450 -4.558590 72.149696 0.000000 0.666966 -0.745088 0.056446 0.984437 1 0 1.000000
  0 17.926201 -11.435600 63.811600 -0.350904 0.712366 -0.607783 0.185662 0.858529 1 0 1.000000
..\..\..\Desktop\General\noesis\at07_huraipan
  0 9.782450 -11.435600 65.993797 0.000000 0.712366 -0.701808 0.056446 0.858529 1 0 1.000000
  0 -1.439240 -4.558590 69.142799 0.372544 0.666966 -0.645265 0.185662 0.984437 1 0 1.000000
  0 9.782450 -4.558590 72.149696 0.000000 0.666966 -0.745088 0.056446 0.984437 1 0 1.000000
..\..\..\Desktop\General\noesis\at07_huraipan
  0 -4.322900 -11.435600 57.849998 0.607783 0.712366 -0.350904 0.334521 0.858529 1 0 1.000000
  0 -6.505010 -11.435600 49.706299 0.701808 0.712366 0.000000 0.495096 0.858529 1 0 1.000000
  0 -12.660900 -4.558590 49.706299 0.745088 0.666966 0.000000 0.495096 0.984437 1 0 1.000000
..\..\..\Desktop\General\noesis\at07_huraipan
  0 -4.322900 -11.435600 57.849998 0.607783 0.712366 -0.350904 0.334521 0.858529 1 0 1.000000
  0 -12.660900 -4.558590 49.706299 0.745088 0.666966 0.000000 0.495096 0.984437 1 0 1.000000
  0 -9.654090 -4.558590 60.928001 0.645265 0.666966 -0.372544 0.334521 0.984437 1 0 1.000000
..\..\..\Desktop\General\noesis\at07_huraipan
  0 -9.654090 -4.558590 60.928001 0.645265 0.666966 -0.372544 0.334521 0.984437 1 0 1.000000
  0 -1.439240 -4.558590 69.142799 0.372544 0.666966 -0.645265 0.185662 0.984437 1 0 1.000000
  0 1.638720 -11.435600 63.811600 0.350904 0.712366 -0.607783 0.185662 0.858529 1 0 1.000000
..\..\..\Desktop\General\noesis\at07_huraipan
  0 -4.322900 -11.435600 57.849998 0.607783 0.712366 -0.350904 0.334521 0.858529 1 0 1.000000
  0 -9.654090 -4.558590 60.928001 0.645265 0.666966 -0.372544 0.334521 0.984437 1 0 1.000000
  0 1.638720 -11.435600 63.811600 0.350904 0.712366 -0.607783 0.185662 0.858529 1 0 1.000000
..\..\..\Desktop\General\noesis\at07_huraipan
  0 -1.439240 -4.558590 30.269800 0.372544 0.666966 0.645265 0.804530 0.984437 1 0 1.000000
  0 1.638720 -11.435600 35.600899 0.350904 0.712366 0.607783 0.804530 0.858529 1 0 1.000000
  0 9.782450 -4.558590 27.262899 0.000000 0.659612 0.751607 0.933746 0.984437 1 0 1.000000
..\..\..\Desktop\General\noesis\at07_huraipan
  0 -4.322900 -11.435600 41.562599 0.607783 0.712366 0.350904 0.655671 0.858529 1 0 1.000000
  0 1.638720 -11.435600 35.600899 0.350904 0.712366 0.607783 0.804530 0.858529 1 0 1.000000
  0 -1.439240 -4.558590 30.269800 0.372544 0.666966 0.645265 0.804530 0.984437 1 0 1.000000
..\..\..\Desktop\General\noesis\at07_huraipan
  0 -9.654090 -4.558590 38.484600 0.645265 0.666966 0.372544 0.655671 0.984437 1 0 1.000000
  0 -12.660900 -4.558590 49.706299 0.745088 0.666966 0.000000 0.495096 0.984437 1 0 1.000000
  0 -6.505010 -11.435600 49.706299 0.701808 0.712366 0.000000 0.495096 0.858529 1 0 1.000000
..\..\..\Desktop\General\noesis\at07_huraipan
  0 -4.322900 -11.435600 41.562599 0.607783 0.712366 0.350904 0.655671 0.858529 1 0 1.000000
  0 -9.654090 -4.558590 38.484600 0.645265 0.666966 0.372544 0.655671 0.984437 1 0 1.000000
  0 -6.505010 -11.435600 49.706299 0.701808 0.712366 0.000000 0.495096 0.858529 1 0 1.000000
..\..\..\Desktop\General\noesis\at07_huraipan
  0 -4.322900 -11.435600 41.562599 0.607783 0.712366 0.350904 0.655671 0.858529 1 0 1.000000
  0 -1.439240 -4.558590 30.269800 0.372544 0.666966 0.645265 0.804530 0.984437 1 0 1.000000
  0 -9.654090 -4.558590 38.484600 0.645265 0.666966 0.372544 0.655671 0.984437 1 0 1.000000
..\..\..\Desktop\General\noesis\at07_huraipan
  0 9.782450 -3.706480 26.341400 0.000000 0.735682 0.677327 0.171015 0.219444 1 0 1.000000
  0 9.782450 -8.656510 30.685499 0.000000 0.659612 0.751607 0.061448 0.219444 1 0 1.000000
  0 12.680400 -8.054750 31.030600 -0.220871 0.643321 0.733045 0.061448 0.168679 1 0 1.000000
..\..\..\Desktop\General\noesis\at07_huraipan
  0 9.782450 -3.706480 26.341400 0.000000 0.735682 0.677327 0.171015 0.219444 1 0 1.000000
  0 6.884510 -8.054750 31.030600 0.220871 0.643321 0.733044 0.061448 0.270652 1 0 1.000000
  0 9.782450 -8.656510 30.685499 0.000000 0.659612 0.751607 0.061448 0.219444 1 0 1.000000
..\..\..\Desktop\General\noesis\at07_huraipan
  0 9.782450 -3.706480 26.341400 0.000000 0.735682 0.677327 0.171015 0.219444 1 0 1.000000
  0 12.680400 -8.054750 31.030600 -0.220871 0.643321 0.733045 0.061448 0.168679 1 0 1.000000
  0 12.680400 -3.104720 26.686399 -0.227584 0.720166 0.655413 0.171015 0.168679 1 0 1.000000
..\..\..\Desktop\General\noesis\at07_huraipan
  0 9.782450 -3.706480 26.341400 0.000000 0.735682 0.677327 0.171015 0.219444 1 0 1.000000
  0 6.884510 -3.104720 26.686399 0.227584 0.720166 0.655413 0.171015 0.270652 1 0 1.000000
  0 6.884510 -8.054750 31.030600 0.220871 0.643321 0.733044 0.061448 0.270652 1 0 1.000000
..\..\..\Desktop\General\noesis\at07_huraipan
  0 9.782450 -3.706480 26.341400 0.000000 0.735682 0.677327 0.171015 0.219444 1 0 1.000000
  0 12.680400 -3.104720 26.686399 -0.227584 0.720166 0.655413 0.171015 0.168679 1 0 1.000000
  0 12.680400 -2.102980 24.530001 -0.250728 0.958166 0.138037 0.230695 0.168679 1 0 1.000000
..\..\..\Desktop\General\noesis\at07_huraipan
  0 9.782450 -3.706480 26.341400 0.000000 0.735682 0.677327 0.171015 0.219444 1 0 1.000000
  0 6.884510 -2.102980 24.530001 0.250728 0.958166 0.138037 0.230695 0.270652 1 0 1.000000
  0 6.884510 -3.104720 26.686399 0.227584 0.720166 0.655413 0.171015 0.270652 1 0 1.000000
..\..\..\Desktop\General\noesis\at07_huraipan
  0 9.782450 -3.706480 26.341400 0.000000 0.735682 0.677327 0.171015 0.219444 1 0 1.000000
  0 12.680400 -2.102980 24.530001 -0.250728 0.958166 0.138037 0.230695 0.168679 1 0 1.000000
  0 9.782450 -2.704740 24.184900 0.000000 0.990124 0.140195 0.230695 0.219444 1 0 1.000000
..\..\..\Desktop\General\noesis\at07_huraipan
  0 9.782450 -3.706480 26.341400 0.000000 0.735682 0.677327 0.171015 0.219444 1 0 1.000000
  0 9.782450 -2.704740 24.184900 0.000000 0.990124 0.140195 0.230695 0.219444 1 0 1.000000
  0 6.884510 -2.102980 24.530001 0.250728 0.958166 0.138037 0.230695 0.270652 1 0 1.000000
..\..\..\Desktop\General\noesis\at07_huraipan
  0 12.680400 -2.102980 24.530001 -0.250728 0.958166 0.138037 0.230695 0.168679 1 0 1.000000
  0 12.680400 2.526960 -11.845500 -0.251273 0.960541 0.119263 0.761914 0.168679 1 0 1.000000
  0 9.782450 -2.704740 24.184900 0.000000 0.990124 0.140195 0.230695 0.219444 1 0 1.000000
..\..\..\Desktop\General\noesis\at07_huraipan
  0 6.884510 -2.102980 24.530001 0.250728 0.958166 0.138037 0.230695 0.270652 1 0 1.000000
  0 9.782450 -2.704740 24.184900 0.000000 0.990124 0.140195 0.230695 0.219444 1 0 1.000000
  0 6.884510 2.526960 -11.845500 0.251273 0.960541 0.119263 0.761914 0.270652 1 0 1.000000
..\..\..\Desktop\General\noesis\at07_huraipan
  0 9.782450 -2.704740 24.184900 0.000000 0.990124 0.140195 0.230695 0.219444 1 0 1.000000
  0 9.782450 1.925200 -14.018500 0.000000 0.992380 0.123216 0.793649 0.219444 1 0 1.000000
  0 6.884510 2.526960 -11.845500 0.251273 0.960541 0.119263 0.761914 0.270652 1 0 1.000000
..\..\..\Desktop\General\noesis\at07_huraipan
  0 12.680400 2.526960 -11.845500 -0.251273 0.960541 0.119263 0.761914 0.168679 1 0 1.000000
  0 9.782450 1.925200 -14.018500 0.000000 0.992380 0.123216 0.793649 0.219444 1 0 1.000000
  0 9.782450 -2.704740 24.184900 0.000000 0.990124 0.140195 0.230695 0.219444 1 0 1.000000
..\..\..\Desktop\General\noesis\at07_huraipan
  0 9.782450 -4.337330 25.812401 0.000000 -0.730743 -0.682652 0.171015 0.066064 1 0 1.000000
  0 12.680400 -3.735570 26.157499 0.227151 -0.714379 -0.661865 0.171015 0.014856 1 0 1.000000
  0 12.680400 -8.566780 30.392599 0.220832 -0.642916 -0.733411 0.061448 0.014856 1 0 1.000000
..\..\..\Desktop\General\noesis\at07_huraipan
  0 9.782450 -4.337330 25.812401 0.000000 -0.730743 -0.682652 0.171015 0.066064 1 0 1.000000
  0 12.680400 -3.111670 24.530001 0.250583 -0.959280 -0.130344 0.230695 0.014856 1 0 1.000000
  0 12.680400 -3.735570 26.157499 0.227151 -0.714379 -0.661865 0.171015 0.014856 1 0 1.000000
..\..\..\Desktop\General\noesis\at07_huraipan
  0 9.782450 -4.337330 25.812401 0.000000 -0.730743 -0.682652 0.171015 0.066064 1 0 1.000000
  0 12.680400 -8.566780 30.392599 0.220832 -0.642916 -0.733411 0.061448 0.014856 1 0 1.000000
  0 9.782450 -9.168540 30.047501 0.000000 -0.659190 -0.751976 0.061448 0.066064 1 0 1.000000
..\..\..\Desktop\General\noesis\at07_huraipan
  0 9.782450 -4.337330 25.812401 0.000000 -0.730743 -0.682652 0.171015 0.066064 1 0 1.000000
  0 9.782450 -3.713430 24.184900 0.000000 -0.991114 -0.133015 0.230695 0.066064 1 0 1.000000
  0 12.680400 -3.111670 24.530001 0.250583 -0.959280 -0.130344 0.230695 0.014856 1 0 1.000000
..\..\..\Desktop\General\noesis\at07_huraipan
  0 9.782450 -4.337330 25.812401 0.000000 -0.730743 -0.682652 0.171015 0.066064 1 0 1.000000
  0 9.782450 -9.168540 30.047501 0.000000 -0.659190 -0.751976 0.061448 0.066064 1 0 1.000000
  0 6.884510 -8.566780 30.392599 -0.220831 -0.642916 -0.733411 0.061448 0.117271 1 0 1.000000
..\..\..\Desktop\General\noesis\at07_huraipan
  0 9.782450 -4.337330 25.812401 0.000000 -0.730743 -0.682652 0.171015 0.066064 1 0 1.000000
  0 6.884510 -3.111670 24.530001 -0.250583 -0.959280 -0.130344 0.230695 0.117271 1 0 1.000000
  0 9.782450 -3.713430 24.184900 0.000000 -0.991114 -0.133015 0.230695 0.066064 1 0 1.000000
..\..\..\Desktop\General\noesis\at07_huraipan
  0 9.782450 -4.337330 25.812401 0.000000 -0.730743 -0.682652 0.171015 0.066064 1 0 1.000000
  0 6.884510 -8.566780 30.392599 -0.220831 -0.642916 -0.733411 0.061448 0.117271 1 0 1.000000
  0 6.884510 -3.735570 26.157499 -0.227151 -0.714379 -0.661865 0.171015 0.117271 1 0 1.000000
..\..\..\Desktop\General\noesis\at07_huraipan
  0 9.782450 -4.337330 25.812401 0.000000 -0.730743 -0.682652 0.171015 0.066064 1 0 1.000000
  0 6.884510 -3.735570 26.157499 -0.227151 -0.714379 -0.661865 0.171015 0.117271 1 0 1.000000
  0 6.884510 -3.111670 24.530001 -0.250583 -0.959280 -0.130344 0.230695 0.117271 1 0 1.000000
..\..\..\Desktop\General\noesis\at07_huraipan
  0 12.680400 -3.111670 24.530001 0.250583 -0.959280 -0.130344 0.230695 0.014856 1 0 1.000000
  0 9.782450 -3.713430 24.184900 0.000000 -0.991114 -0.133015 0.230695 0.066064 1 0 1.000000
  0 12.680400 1.518270 -11.845500 0.251273 -0.960541 -0.119263 0.761914 0.014856 1 0 1.000000
..\..\..\Desktop\General\noesis\at07_huraipan
  0 6.884510 -3.111670 24.530001 -0.250583 -0.959280 -0.130344 0.230695 0.117271 1 0 1.000000
  0 6.884510 1.518270 -11.845500 -0.251273 -0.960541 -0.119263 0.761914 0.117271 1 0 1.000000
  0 9.782450 -3.713430 24.184900 0.000000 -0.991114 -0.133015 0.230695 0.066064 1 0 1.000000
..\..\..\Desktop\General\noesis\at07_huraipan
  0 12.680400 1.518270 -11.845500 0.251273 -0.960541 -0.119263 0.761914 0.014856 1 0 1.000000
  0 9.782450 -3.713430 24.184900 0.000000 -0.991114 -0.133015 0.230695 0.066064 1 0 1.000000
  0 9.782450 0.916509 -14.018500 0.000000 -0.991114 -0.133015 0.793649 0.066064 1 0 1.000000
..\..\..\Desktop\General\noesis\at07_huraipan
  0 9.782450 0.916509 -14.018500 0.000000 -0.991114 -0.133015 0.793649 0.066064 1 0 1.000000
  0 9.782450 -3.713430 24.184900 0.000000 -0.991114 -0.133015 0.230695 0.066064 1 0 1.000000
  0 6.884510 1.518270 -11.845500 -0.251273 -0.960541 -0.119263 0.761914 0.117271 1 0 1.000000
..\..\..\Desktop\General\noesis\at07_huraipan
  0 9.782450 -8.656510 30.685499 0.000000 -0.779902 0.625902 0.061448 0.219444 1 0 1.000000
  0 9.782450 -9.168540 30.047501 0.000000 -0.779902 0.625902 0.029338 0.219444 1 0 1.000000
  0 12.680400 -8.566780 30.392599 0.087088 -0.776939 0.623524 0.029338 0.168679 1 0 1.000000
..\..\..\Desktop\General\noesis\at07_huraipan
  0 9.782450 -8.656510 30.685499 0.000000 -0.779902 0.625902 0.061448 0.219444 1 0 1.000000
  0 6.884510 -8.566780 30.392599 -0.087087 -0.776939 0.623524 0.029338 0.270652 1 0 1.000000
  0 9.782450 -9.168540 30.047501 0.000000 -0.779902 0.625902 0.029338 0.219444 1 0 1.000000
..\..\..\Desktop\General\noesis\at07_huraipan
  0 9.782450 -8.656510 30.685499 0.000000 -0.779902 0.625902 0.061448 0.219444 1 0 1.000000
  0 12.680400 -8.566780 30.392599 0.087088 -0.776939 0.623524 0.029338 0.168679 1 0 1.000000
  0 12.680400 -8.054750 31.030600 0.087088 -0.776939 0.623524 0.061448 0.168679 1 0 1.000000
..\..\..\Desktop\General\noesis\at07_huraipan
  0 9.782450 -8.656510 30.685499 0.000000 -0.779902 0.625902 0.061448 0.219444 1 0 1.000000
  0 6.884510 -8.054750 31.030600 -0.087087 -0.776939 0.623524 0.061448 0.270652 1 0 1.000000
  0 6.884510 -8.566780 30.392599 -0.087087 -0.776939 0.623524 0.029338 0.270652 1 0 1.000000
..\..\..\Desktop\General\noesis\at07_huraipan
  0 9.782450 1.925200 -14.018500 0.000000 0.000000 -1.000000 0.793649 0.219444 1 0 1.000000
  0 12.680400 2.526960 -11.845500 0.599932 0.000000 -0.800051 0.761914 0.168679 1 0 1.000000
  0 12.680400 1.518270 -11.845500 0.599932 0.000000 -0.800051 0.761914 0.141344 1 0 1.000000
..\..\..\Desktop\General\noesis\at07_huraipan
  0 9.782450 1.925200 -14.018500 0.000000 0.000000 -1.000000 0.793649 0.219444 1 0 1.000000
  0 12.680400 1.518270 -11.845500 0.599932 0.000000 -0.800051 0.761914 0.141344 1 0 1.000000
  0 9.782450 0.916509 -14.018500 0.000000 0.000000 -1.000000 0.816587 0.219444 1 0 1.000000
..\..\..\Desktop\General\noesis\at07_huraipan
  0 9.782450 1.925200 -14.018500 0.000000 0.000000 -1.000000 0.793649 0.219444 1 0 1.000000
  0 9.782450 0.916509 -14.018500 0.000000 0.000000 -1.000000 0.816587 0.219444 1 0 1.000000
  0 6.884510 1.518270 -11.845500 -0.599932 0.000000 -0.800051 0.761914 0.298694 1 0 1.000000
..\..\..\Desktop\General\noesis\at07_huraipan
  0 9.782450 1.925200 -14.018500 0.000000 0.000000 -1.000000 0.793649 0.219444 1 0 1.000000
  0 6.884510 1.518270 -11.845500 -0.599932 0.000000 -0.800051 0.761914 0.298694 1 0 1.000000
  0 6.884510 2.526960 -11.845500 -0.599932 0.000000 -0.800051 0.761914 0.270652 1 0 1.000000
..\..\..\Desktop\General\noesis\at07_huraipan
  0 12.680400 -3.735570 26.157499 1.000000 0.000000 0.000000 0.171015 0.141344 1 0 1.000000
  0 12.680400 -8.054750 31.030600 1.000000 0.000000 0.000000 0.061448 0.168679 1 0 1.000000
  0 12.680400 -8.566780 30.392599 1.000000 0.000000 0.000000 0.061448 0.141344 1 0 1.000000
..\..\..\Desktop\General\noesis\at07_huraipan
  0 12.680400 -3.735570 26.157499 1.000000 0.000000 0.000000 0.171015 0.141344 1 0 1.000000
  0 12.680400 -3.104720 26.686399 1.000000 0.000000 0.000000 0.171015 0.168679 1 0 1.000000
  0 12.680400 -8.054750 31.030600 1.000000 0.000000 0.000000 0.061448 0.168679 1 0 1.000000
..\..\..\Desktop\General\noesis\at07_huraipan
  0 12.680400 -3.735570 26.157499 1.000000 0.000000 0.000000 0.171015 0.141344 1 0 1.000000
  0 12.680400 -3.111670 24.530001 1.000000 0.000000 0.000000 0.230695 0.141344 1 0 1.000000
  0 12.680400 -3.104720 26.686399 1.000000 0.000000 0.000000 0.171015 0.168679 1 0 1.000000
..\..\..\Desktop\General\noesis\at07_huraipan
  0 12.680400 -3.111670 24.530001 1.000000 0.000000 0.000000 0.230695 0.141344 1 0 1.000000
  0 12.680400 -2.102980 24.530001 1.000000 0.000000 0.000000 0.230695 0.168679 1 0 1.000000
  0 12.680400 -3.104720 26.686399 1.000000 0.000000 0.000000 0.171015 0.168679 1 0 1.000000
..\..\..\Desktop\General\noesis\at07_huraipan
  0 12.680400 -3.111670 24.530001 1.000000 0.000000 0.000000 0.230695 0.141344 1 0 1.000000
  0 12.680400 1.518270 -11.845500 1.000000 0.000000 0.000000 0.761914 0.141344 1 0 1.000000
  0 12.680400 -2.102980 24.530001 1.000000 0.000000 0.000000 0.230695 0.168679 1 0 1.000000
..\..\..\Desktop\General\noesis\at07_huraipan
  0 12.680400 1.518270 -11.845500 1.000000 0.000000 0.000000 0.761914 0.141344 1 0 1.000000
  0 12.680400 2.526960 -11.845500 1.000000 0.000000 0.000000 0.761914 0.168679 1 0 1.000000
  0 12.680400 -2.102980 24.530001 1.000000 0.000000 0.000000 0.230695 0.168679 1 0 1.000000
..\..\..\Desktop\General\noesis\at07_huraipan
  0 6.884510 -3.735570 26.157499 -1.000000 0.000000 0.000000 0.171015 0.298694 1 0 1.000000
  0 6.884510 -8.566780 30.392599 -1.000000 0.000000 0.000000 0.061448 0.298694 1 0 1.000000
  0 6.884510 -8.054750 31.030600 -1.000000 0.000000 0.000000 0.061448 0.270652 1 0 1.000000
..\..\..\Desktop\General\noesis\at07_huraipan
  0 6.884510 -3.735570 26.157499 -1.000000 0.000000 0.000000 0.171015 0.298694 1 0 1.000000
  0 6.884510 -8.054750 31.030600 -1.000000 0.000000 0.000000 0.061448 0.270652 1 0 1.000000
  0 6.884510 -3.104720 26.686399 -1.000000 0.000000 0.000000 0.171015 0.270652 1 0 1.000000
..\..\..\Desktop\General\noesis\at07_huraipan
  0 6.884510 -3.735570 26.157499 -1.000000 0.000000 0.000000 0.171015 0.298694 1 0 1.000000
  0 6.884510 -3.104720 26.686399 -1.000000 0.000000 0.000000 0.171015 0.270652 1 0 1.000000
  0 6.884510 -3.111670 24.530001 -1.000000 0.000000 0.000000 0.230695 0.298694 1 0 1.000000
..\..\..\Desktop\General\noesis\at07_huraipan
  0 6.884510 -3.104720 26.686399 -1.000000 0.000000 0.000000 0.171015 0.270652 1 0 1.000000
  0 6.884510 -2.102980 24.530001 -1.000000 0.000000 0.000000 0.230695 0.270652 1 0 1.000000
  0 6.884510 -3.111670 24.530001 -1.000000 0.000000 0.000000 0.230695 0.298694 1 0 1.000000
..\..\..\Desktop\General\noesis\at07_huraipan
  0 6.884510 -2.102980 24.530001 -1.000000 0.000000 0.000000 0.230695 0.270652 1 0 1.000000
  0 6.884510 1.518270 -11.845500 -1.000000 0.000000 0.000000 0.761914 0.298694 1 0 1.000000
  0 6.884510 -3.111670 24.530001 -1.000000 0.000000 0.000000 0.230695 0.298694 1 0 1.000000
..\..\..\Desktop\General\noesis\at07_huraipan
  0 6.884510 -2.102980 24.530001 -1.000000 0.000000 0.000000 0.230695 0.270652 1 0 1.000000
  0 6.884510 2.526960 -11.845500 -1.000000 0.000000 0.000000 0.761914 0.270652 1 0 1.000000
  0 6.884510 1.518270 -11.845500 -1.000000 0.000000 0.000000 0.761914 0.298694 1 0 1.000000
..\..\..\Desktop\General\noesis\at07_huraipan
  0 -1.788150 -4.461180 69.747200 0.101140 0.989718 -0.101139 0.176041 0.644890 1 0 1.000000
  0 -9.654090 -4.558590 60.928001 0.101140 0.989718 -0.101139 0.329529 0.681927 1 0 1.000000
  0 -10.258400 -4.461180 61.276901 0.101140 0.989718 -0.101139 0.329529 0.644890 1 0 1.000000
..\..\..\Desktop\General\noesis\at07_huraipan
  0 -1.788150 -4.461180 69.747200 0.101140 0.989718 -0.101139 0.176041 0.644890 1 0 1.000000
  0 -1.439240 -4.558590 69.142799 0.101140 0.989718 -0.101139 0.176041 0.681927 1 0 1.000000
  0 -9.654090 -4.558590 60.928001 0.101140 0.989718 -0.101139 0.329529 0.681927 1 0 1.000000
..\..\..\Desktop\General\noesis\at07_huraipan
  0 -10.258400 -4.461180 61.276901 0.138159 0.989718 -0.037019 0.329529 0.644890 1 0 1.000000
  0 -12.660900 -4.558590 49.706299 0.138159 0.989718 -0.037019 0.495096 0.681927 1 0 1.000000
  0 -13.358700 -4.461180 49.706299 0.138159 0.989718 -0.037019 0.495096 0.644890 1 0 1.000000
..\..\..\Desktop\General\noesis\at07_huraipan
  0 -10.258400 -4.461180 61.276901 0.138159 0.989718 -0.037019 0.329529 0.644890 1 0 1.000000
  0 -9.654090 -4.558590 60.928001 0.138159 0.989718 -0.037019 0.329529 0.681927 1 0 1.000000
  0 -12.660900 -4.558590 49.706299 0.138159 0.989718 -0.037019 0.495096 0.681927 1 0 1.000000
..\..\..\Desktop\General\noesis\at07_huraipan
  0 -13.358700 -4.461180 49.706299 0.138159 0.989718 0.037019 0.495096 0.644890 1 0 1.000000
  0 -9.654090 -4.558590 38.484600 0.138159 0.989718 0.037019 0.660663 0.681927 1 0 1.000000
  0 -10.258400 -4.461180 38.135700 0.138159 0.989718 0.037019 0.660663 0.644890 1 0 1.000000
..\..\..\Desktop\General\noesis\at07_huraipan
  0 -13.358700 -4.461180 49.706299 0.138159 0.989718 0.037019 0.495096 0.644890 1 0 1.000000
  0 -12.660900 -4.558590 49.706299 0.138159 0.989718 0.037019 0.495096 0.681927 1 0 1.000000
  0 -9.654090 -4.558590 38.484600 0.138159 0.989718 0.037019 0.660663 0.681927 1 0 1.000000
..\..\..\Desktop\General\noesis\at07_huraipan
  0 -10.258400 -4.461180 38.135700 0.101139 0.989718 0.101139 0.660663 0.644890 1 0 1.000000
  0 -1.439240 -4.558590 30.269800 0.101139 0.989718 0.101139 0.814151 0.681927 1 0 1.000000
  0 -1.788150 -4.461180 29.665400 0.101139 0.989718 0.101139 0.814151 0.644890 1 0 1.000000
..\..\..\Desktop\General\noesis\at07_huraipan
  0 -10.258400 -4.461180 38.135700 0.101139 0.989718 0.101139 0.660663 0.644890 1 0 1.000000
  0 -9.654090 -4.558590 38.484600 0.101139 0.989718 0.101139 0.660663 0.681927 1 0 1.000000
  0 -1.439240 -4.558590 30.269800 0.101139 0.989718 0.101139 0.814151 0.681927 1 0 1.000000
..\..\..\Desktop\General\noesis\at07_huraipan
  0 -1.788150 -4.461180 29.665400 0.037020 0.989718 0.138159 0.814151 0.644890 1 0 1.000000
  0 9.782450 -4.558590 27.262899 0.037020 0.989718 0.138159 0.947385 0.681927 1 0 1.000000
  0 9.782450 -4.461180 26.565100 0.037020 0.989718 0.138159 0.947385 0.644890 1 0 1.000000
..\..\..\Desktop\General\noesis\at07_huraipan
  0 -1.788150 -4.461180 29.665400 0.037020 0.989718 0.138159 0.814151 0.644890 1 0 1.000000
  0 -1.439240 -4.558590 30.269800 0.037020 0.989718 0.138159 0.814151 0.681927 1 0 1.000000
  0 9.782450 -4.558590 27.262899 0.037020 0.989718 0.138159 0.947385 0.681927 1 0 1.000000
..\..\..\Desktop\General\noesis\at07_huraipan
  0 9.782450 -4.461180 26.565100 -0.037020 0.989718 0.138159 0.947385 0.644890 1 0 1.000000
  0 21.004101 -4.558590 30.269800 -0.037020 0.989718 0.138159 0.814151 0.681927 1 0 1.000000
  0 21.353001 -4.461180 29.665400 -0.037020 0.989718 0.138159 0.814151 0.644890 1 0 1.000000
..\..\..\Desktop\General\noesis\at07_huraipan
  0 9.782450 -4.461180 26.565100 -0.037020 0.989718 0.138159 0.947385 0.644890 1 0 1.000000
  0 9.782450 -4.558590 27.262899 -0.037020 0.989718 0.138159 0.947385 0.681927 1 0 1.000000
  0 21.004101 -4.558590 30.269800 -0.037020 0.989718 0.138159 0.814151 0.681927 1 0 1.000000
..\..\..\Desktop\General\noesis\at07_huraipan
  0 21.353001 -4.461180 29.665400 -0.101139 0.989718 0.101139 0.814151 0.644890 1 0 1.000000
  0 29.219000 -4.558590 38.484600 -0.101139 0.989718 0.101139 0.660663 0.681927 1 0 1.000000
  0 29.823299 -4.461180 38.135700 -0.101139 0.989718 0.101139 0.660663 0.644890 1 0 1.000000
..\..\..\Desktop\General\noesis\at07_huraipan
  0 21.353001 -4.461180 29.665400 -0.101139 0.989718 0.101139 0.814151 0.644890 1 0 1.000000
  0 21.004101 -4.558590 30.269800 -0.101139 0.989718 0.101139 0.814151 0.681927 1 0 1.000000
  0 29.219000 -4.558590 38.484600 -0.101139 0.989718 0.101139 0.660663 0.681927 1 0 1.000000
..\..\..\Desktop\General\noesis\at07_huraipan
  0 29.823299 -4.461180 38.135700 -0.138159 0.989718 0.037019 0.660663 0.644890 1 0 1.000000
  0 32.225800 -4.558590 49.706299 -0.138159 0.989718 0.037019 0.495096 0.681927 1 0 1.000000
  0 32.923599 -4.461180 49.706299 -0.138159 0.989718 0.037019 0.495096 0.644890 1 0 1.000000
..\..\..\Desktop\General\noesis\at07_huraipan
  0 29.823299 -4.461180 38.135700 -0.138159 0.989718 0.037019 0.660663 0.644890 1 0 1.000000
  0 29.219000 -4.558590 38.484600 -0.138159 0.989718 0.037019 0.660663 0.681927 1 0 1.000000
  0 32.225800 -4.558590 49.706299 -0.138159 0.989718 0.037019 0.495096 0.681927 1 0 1.000000
..\..\..\Desktop\General\noesis\at07_huraipan
  0 32.923599 -4.461180 49.706299 -0.138160 0.989718 -0.037020 0.495096 0.644890 1 0 1.000000
  0 29.219000 -4.558590 60.928001 -0.138160 0.989718 -0.037020 0.329529 0.681927 1 0 1.000000
  0 29.823299 -4.461180 61.276901 -0.138160 0.989718 -0.037020 0.329529 0.644890 1 0 1.000000
..\..\..\Desktop\General\noesis\at07_huraipan
  0 32.923599 -4.461180 49.706299 -0.138160 0.989718 -0.037020 0.495096 0.644890 1 0 1.000000
  0 32.225800 -4.558590 49.706299 -0.138160 0.989718 -0.037020 0.495096 0.681927 1 0 1.000000
  0 29.219000 -4.558590 60.928001 -0.138160 0.989718 -0.037020 0.329529 0.681927 1 0 1.000000
..\..\..\Desktop\General\noesis\at07_huraipan
  0 29.823299 -4.461180 61.276901 -0.101139 0.989718 -0.101139 0.329529 0.644890 1 0 1.000000
  0 21.004101 -4.558590 69.142799 -0.101139 0.989718 -0.101139 0.176041 0.681927 1 0 1.000000
  0 21.353001 -4.461180 69.747200 -0.101139 0.989718 -0.101139 0.176041 0.644890 1 0 1.000000
..\..\..\Desktop\General\noesis\at07_huraipan
  0 29.823299 -4.461180 61.276901 -0.101139 0.989718 -0.101139 0.329529 0.644890 1 0 1.000000
  0 29.219000 -4.558590 60.928001 -0.101139 0.989718 -0.101139 0.329529 0.681927 1 0 1.000000
  0 21.004101 -4.558590 69.142799 -0.101139 0.989718 -0.101139 0.176041 0.681927 1 0 1.000000
..\..\..\Desktop\General\noesis\at07_huraipan
  0 21.353001 -4.461180 69.747200 -0.037020 0.989718 -0.138159 0.176041 0.644890 1 0 1.000000
  0 9.782450 -4.558590 72.149696 -0.037020 0.989718 -0.138159 0.042808 0.681927 1 0 1.000000
  0 9.782450 -4.461180 72.847504 -0.037020 0.989718 -0.138159 0.042808 0.644890 1 0 1.000000
..\..\..\Desktop\General\noesis\at07_huraipan
  0 21.353001 -4.461180 69.747200 -0.037020 0.989718 -0.138159 0.176041 0.644890 1 0 1.000000
  0 21.004101 -4.558590 69.142799 -0.037020 0.989718 -0.138159 0.176041 0.681927 1 0 1.000000
  0 9.782450 -4.558590 72.149696 -0.037020 0.989718 -0.138159 0.042808 0.681927 1 0 1.000000
..\..\..\Desktop\General\noesis\at07_huraipan
  0 9.782450 -4.461180 72.847504 0.037020 0.989718 -0.138159 0.042808 0.644890 1 0 1.000000
  0 -1.439240 -4.558590 69.142799 0.037020 0.989718 -0.138159 0.176041 0.681927 1 0 1.000000
  0 -1.788150 -4.461180 69.747200 0.037020 0.989718 -0.138159 0.176041 0.644890 1 0 1.000000
..\..\..\Desktop\General\noesis\at07_huraipan
  0 9.782450 -4.461180 72.847504 0.037020 0.989718 -0.138159 0.042808 0.644890 1 0 1.000000
  0 9.782450 -4.558590 72.149696 0.037020 0.989718 -0.138159 0.042808 0.681927 1 0 1.000000
  0 -1.439240 -4.558590 69.142799 0.037020 0.989718 -0.138159 0.176041 0.681927 1 0 1.000000
end
